<svg width="26" height="26" viewBox="0 0 26 26" fill="none" xmlns="http://www.w3.org/2000/svg">
    <path d="M18.995 8.41685C18.9192 8.40602 18.8434 8.40602 18.7675 8.41685C17.0884 8.36269 15.7559 6.98685 15.7559 5.29685C15.7559 3.57435 17.1534 2.16602 18.8867 2.16602C20.6092 2.16602 22.0175 3.56351 22.0175 5.29685C22.0067 6.98685 20.6742 8.36269 18.995 8.41685Z" fill="black" fill-opacity="0.3"/>
    <path d="M6.98148 8.41685C7.05731 8.40602 7.13315 8.40602 7.20898 8.41685C8.88815 8.36269 10.2206 6.98685 10.2206 5.29685C10.2206 3.57435 8.82315 2.16602 7.08982 2.16602C5.36732 2.16602 3.95898 3.56351 3.95898 5.29685C3.96982 6.98685 5.30231 8.36269 6.98148 8.41685Z" fill="black" fill-opacity="0.3"/>
    <path d="M13.1346 17.1915C13.0479 17.1807 12.9504 17.1807 12.8529 17.1915C10.8596 17.1265 9.26709 15.4907 9.26709 13.4757C9.26709 11.4174 10.9246 9.74902 12.9938 9.74902C15.0521 9.74902 16.7204 11.4174 16.7204 13.4757C16.7204 15.4907 15.1388 17.1265 13.1346 17.1915Z" fill="black" fill-opacity="0.6"/>
    <path d="M17.6001 16.2091C18.0745 15.4092 18.3461 14.4744 18.3461 13.4763C18.3461 12.769 18.2089 12.0938 17.9596 11.4757C18.3523 11.0789 18.8973 10.833 19.4998 10.833H21.6664C22.863 10.833 23.8331 11.8031 23.8331 12.9997V15.1663C23.8331 16.363 22.863 17.333 21.6664 17.333H19.4998C18.6812 17.333 17.9686 16.879 17.6001 16.2091Z" fill="black" fill-opacity="0.3"/>
    <path d="M8.03092 11.4671C7.78018 12.0877 7.64232 12.766 7.64232 13.4763C7.64232 14.478 7.91685 15.4152 8.39503 16.2164C8.02537 16.8823 7.31499 17.333 6.49935 17.333H4.33268C3.13607 17.333 2.16602 16.363 2.16602 15.1663V12.9997C2.16602 11.8031 3.13607 10.833 4.33268 10.833H6.49935C7.09741 10.833 7.63887 11.0753 8.03092 11.4671Z" fill="black" fill-opacity="0.3"/>
    <rect x="8.66602" y="18.416" width="8.66667" height="5.41667" rx="2" fill="black" fill-opacity="0.6"/>
</svg>