<svg width="26" height="26" viewBox="0 0 26 26" fill="none" xmlns="http://www.w3.org/2000/svg">
    <path d="M23.8333 15.625C23.8333 15.0727 23.3856 14.625 22.8333 14.625H15.625C15.0727 14.625 14.625 15.0727 14.625 15.625V22.8333C14.625 23.3856 15.0727 23.8333 15.625 23.8333H22.8333C23.3856 23.8333 23.8333 23.3856 23.8333 22.8333V15.625Z" fill="black" fill-opacity="0.6"/>
    <path d="M11.3751 3.16699C11.3751 2.61471 10.9274 2.16699 10.3751 2.16699H3.16681C2.61452 2.16699 2.16681 2.61471 2.16681 3.16699V10.3753C2.16681 10.9276 2.61452 11.3753 3.16681 11.3753H10.3751C10.9274 11.3753 11.3751 10.9276 11.3751 10.3753V3.16699Z" fill="black" fill-opacity="0.6"/>
    <path d="M23.8333 4.16699C23.8333 3.06242 22.9379 2.16699 21.8333 2.16699H16.625C15.5204 2.16699 14.625 3.06242 14.625 4.16699V9.37533C14.625 10.4799 15.5204 11.3753 16.625 11.3753H21.8333C22.9379 11.3753 23.8333 10.4799 23.8333 9.37533V4.16699Z" fill="black" fill-opacity="0.3"/>
    <path d="M11.3751 16.625C11.3751 15.5204 10.4797 14.625 9.37512 14.625H4.16681C3.06224 14.625 2.16681 15.5204 2.16681 16.625V21.8333C2.16681 22.9379 3.06224 23.8333 4.16681 23.8333H9.37512C10.4797 23.8333 11.3751 22.9379 11.3751 21.8333V16.625Z" fill="black" fill-opacity="0.3"/>
</svg>