<svg width="24" height="24" viewBox="0 0 24 24" fill="none" xmlns="http://www.w3.org/2000/svg">
    <path d="M9 18C9 18.73 8.80001 19.41 8.45001 20H20C21.1046 20 22 19.1046 22 18V6C22 4.89543 21.1046 4 20 4H4C2.89543 4 2 4.89543 2 6V15.36C2.73 14.53 3.8 14 5 14C7.21 14 9 15.79 9 18Z" fill="#B3B3B3"/>
    <path d="M12 14.5C13.3807 14.5 14.5 13.3807 14.5 12C14.5 10.6193 13.3807 9.5 12 9.5C10.6193 9.5 9.5 10.6193 9.5 12C9.5 13.3807 10.6193 14.5 12 14.5Z" fill="#666666"/>
    <path d="M17.75 14.75V9.25L19.25 9.25005V14.75H17.75Z" fill="#666666"/>
    <path d="M5 14C2.79 14 1 15.79 1 18C1 18.75 1.20999 19.46 1.57999 20.06C2.26999 21.22 3.54 22 5 22C6.46 22 7.73001 21.22 8.42001 20.06C8.79001 19.46 9 18.75 9 18C9 15.79 7.21 14 5 14ZM7.23999 18.73H5.75V20.26H4.25V18.73H2.76001V17.23H4.25V15.77H5.75V17.23H7.23999V18.73Z" fill="#666666"/>
</svg>
