<svg width="26" height="26" viewBox="0 0 26 26" fill="none" xmlns="http://www.w3.org/2000/svg">
    <path d="M21.6674 21.8327C21.6674 22.9373 20.7719 23.8327 19.6674 23.8327H6.33405C5.22948 23.8327 4.33405 22.9373 4.33405 21.8327V4.16601C4.33405 3.06144 5.22948 2.16602 6.33405 2.16602H12.4822C13.0345 2.16602 13.4822 2.61373 13.4822 3.16602V9.83268C13.4822 10.385 13.9299 10.8327 14.4822 10.8327H20.6674C21.2197 10.8327 21.6674 11.2804 21.6674 11.8327V21.8327Z" fill="black" fill-opacity="0.3"/>
    <path d="M21.1441 9.20768H15.6671C15.3909 9.20768 15.1671 8.98383 15.1671 8.70768L15.1671 2.76861C15.1671 2.24348 15.7101 1.97058 16.044 2.3279L21.4992 8.16558C21.8468 8.53751 21.6184 9.20768 21.1441 9.20768Z" fill="black" fill-opacity="0.6"/>
    <path d="M15.709 16.25H7.58405L7.58408 14.625H15.709V16.25Z" fill="black" fill-opacity="0.6"/>
    <path d="M13.5424 20.041H7.58405L7.58407 18.416H13.5424V20.041Z" fill="black" fill-opacity="0.6"/>
</svg>