<svg width="24" height="24" viewBox="0 0 24 24" fill="none" xmlns="http://www.w3.org/2000/svg">
    <path d="M4.49862 7.91063C3.30847 8.23186 2.22969 8.84988 1.32434 9.67964C0.917193 10.0528 0.889637 10.6854 1.26279 11.0925C1.63595 11.4997 2.26852 11.5272 2.67567 11.1541C3.52402 10.3765 4.54256 9.87054 5.63976 9.71411C5.87976 9.67989 6.12451 9.66223 6.37327 9.66223C9.35487 9.66223 11.3429 11.572 12.4598 14.3734C12.5418 14.5788 12.6005 14.7981 12.6426 15.0071C12.7517 15.5485 13.1971 16 13.7494 16H21C22.1046 16 23 15.1046 23 14L23 11C23 9.89542 22.1045 8.99999 21 8.99999C20.4309 8.99999 19.8667 8.99999 19.5 8.99999V7.91483C19.5 7.40958 19.9096 6.99999 20.4148 6.99999C20.9671 6.99999 21.4148 6.55228 21.4149 5.99999C21.4149 5.44771 20.9671 4.99999 20.4149 4.99999C18.805 4.99999 17.5 6.30501 17.5 7.91483V8.99999H15.6626C15.2609 8.99999 14.8983 8.7597 14.7417 8.38985L12.9765 4.22028C12.6633 3.48057 11.938 3 11.1347 3H6.49862C5.39405 3 4.49862 3.89543 4.49862 5V7.91063Z" fill="black" fill-opacity="0.3"/>
    <path d="M11.2245 16.2499C11.2245 18.8733 9.09784 20.9999 6.47449 20.9999C3.85113 20.9999 1.72449 18.8733 1.72449 16.2499C1.72449 13.6266 3.85113 11.4999 6.47449 11.4999C9.09784 11.4999 11.2245 13.6266 11.2245 16.2499Z" fill="black" fill-opacity="0.6"/>
    <path d="M22.0001 17.4999C22.0001 19.4329 20.4331 20.9999 18.5001 20.9999C16.5671 20.9999 15.0001 19.4329 15.0001 17.4999C15.0001 16.253 15.6521 15.1583 16.6339 14.5384C17.1741 14.1973 17.814 13.9999 18.5001 13.9999C19.1861 13.9999 19.8261 14.1973 20.3662 14.5384C21.348 15.1583 22.0001 16.253 22.0001 17.4999Z" fill="black" fill-opacity="0.6"/>
</svg>
