<svg width="26" height="26" viewBox="0 0 26 26" fill="none" xmlns="http://www.w3.org/2000/svg">
    <path fill-rule="evenodd" clip-rule="evenodd" d="M3.8144 9.99419C3.92168 8.75129 4.4294 4.02293 5.9695 3.64408C7.53024 3.26014 10.3573 7.17579 11.0159 8.125H14.9447C15.6034 7.17575 18.4304 3.26016 19.9911 3.6441C21.5304 4.02274 22.067 8.74592 22.1823 9.99207C23.205 11.0681 23.8327 12.5233 23.8327 14.125V16.2083C23.8327 19.522 21.1464 22.2083 17.8327 22.2083H8.16601C4.8523 22.2083 2.16602 19.522 2.16602 16.2083V14.125C2.16602 12.5243 2.79283 11.07 3.8144 9.99419Z" fill="black" fill-opacity="0.3"/>
    <path d="M3.79199 16.375C3.79199 13.6136 6.03057 11.375 8.79199 11.375H17.0281C19.7895 11.375 22.0281 13.6136 22.0281 16.375V17.2083C22.0281 19.9698 19.7895 22.2083 17.0281 22.2083H8.79199C6.03057 22.2083 3.79199 19.9698 3.79199 17.2083V16.375Z" fill="black" fill-opacity="0.6"/>
    <rect x="8.66699" y="15.167" width="2.16667" height="3.25" rx="1" fill="white"/>
    <rect x="15.167" y="15.167" width="2.16667" height="3.25" rx="1" fill="white"/>
</svg>