<svg width="26" height="26" viewBox="0 0 26 26" fill="none" xmlns="http://www.w3.org/2000/svg">
    <path d="M13 6.222V22.9668C13.1776 22.9668 13.3656 22.9354 13.5118 22.8518L13.5537 22.831C15.5593 21.7342 19.0586 20.5851 21.3253 20.2822L21.6283 20.2404C22.6311 20.115 23.4459 19.1749 23.4459 18.1721V5.55345C23.4459 4.31039 22.4327 3.37027 21.1896 3.47473C18.996 3.65231 15.6742 4.7596 13.8148 5.91909L13.5537 6.07574C13.397 6.16976 13.1985 6.222 13 6.222Z" fill="black" fill-opacity="0.3"/>
    <path d="M2.55414 5.56427V18.1725C2.55414 19.1753 3.36891 20.1154 4.37171 20.2407L4.71645 20.2826C6.99365 20.5855 10.5035 21.7449 12.5091 22.8522C12.6449 22.9358 12.812 22.9672 13 22.9672V6.22237C12.8016 6.22237 12.6031 6.17012 12.4464 6.07611L12.2688 5.96122C10.4094 4.79128 7.07719 3.67357 4.88355 3.48555H4.82088C3.57782 3.38109 2.55414 4.31076 2.55414 5.56427Z" fill="black" fill-opacity="0.6"/>
    <path d="M20.3121 3.58936V8.07062C20.3121 8.48846 19.8525 8.73914 19.4973 8.50933L18.223 7.66321L16.9486 8.50933C16.6039 8.73914 16.1338 8.48846 16.1338 8.07062V4.78014C17.5022 4.23695 19.0273 3.79827 20.3121 3.58936Z" fill="black" fill-opacity="0.6"/>
</svg>