<svg width="26" height="26" viewBox="0 0 26 26" fill="none" xmlns="http://www.w3.org/2000/svg">
    <path d="M22.7808 12.563V18.7051C22.7808 21.5352 20.4485 23.8321 17.5749 23.8321H8.47495C5.60129 23.8321 3.26904 21.5352 3.26904 18.7051V12.6348C4.06034 13.4756 5.18482 13.9575 6.403 13.9575C7.71489 13.9575 8.97472 13.3115 9.76601 12.2759C10.474 13.3115 11.6818 13.9575 13.0249 13.9575C14.3576 13.9575 15.5446 13.3423 16.263 12.3169C17.0647 13.332 18.3037 13.9575 19.5948 13.9575C20.8546 13.9575 21.9999 13.4551 22.7808 12.563Z" fill="black" fill-opacity="0.3"/>
    <path d="M23.8111 9.36432L23.5092 6.52396C23.0719 3.42726 21.6455 2.16602 18.5948 2.16602H14.5967L15.3672 9.85651C15.3776 9.95905 15.388 10.0718 15.388 10.2667C15.4504 10.7999 15.617 11.2921 15.8669 11.733C16.6166 13.0865 18.0742 13.9581 19.5943 13.9581C20.9791 13.9581 22.2285 13.3531 23.0094 12.2867C23.6341 11.4664 23.9153 10.4307 23.8111 9.36432Z" fill="black" fill-opacity="0.4"/>
    <path d="M7.39205 2.16602C4.33098 2.16602 2.91498 3.42726 2.46727 6.55473L2.18615 9.37457C2.08203 10.4718 2.38397 11.5382 3.03992 12.3687C3.83122 13.3839 5.0494 13.9581 6.40293 13.9581C7.92306 13.9581 9.38071 13.0865 10.1199 11.7535C10.3907 11.2921 10.5677 10.7589 10.6197 10.2051L11.4318 2.17627H7.39205V2.16602Z" fill="black" fill-opacity="0.4"/>
    <path d="M12.3482 17.9678C11.0259 18.1011 10.0264 19.2085 10.0264 20.521V23.8331H16.0132V20.8799C16.0236 18.7368 14.7429 17.7217 12.3482 17.9678Z" fill="black" fill-opacity="0.6"/>
    <path d="M16.1377 2.16602H9.89065L9.12018 9.71295C9.05771 10.4102 9.16183 11.0665 9.42212 11.6612C10.026 13.0558 11.442 13.9581 13.0246 13.9581C14.628 13.9581 16.0128 13.0763 16.6375 11.6715C16.8249 11.2305 16.9394 10.7178 16.9499 10.1949V10.0001L16.1377 2.16602Z" fill="#3F4446"/>
</svg>