<svg width="26" height="26" viewBox="0 0 26 26" fill="none" xmlns="http://www.w3.org/2000/svg">
    <path fill-rule="evenodd" clip-rule="evenodd" d="M25.729 16.4883C25.729 16.4883 25.729 17.1081 25.729 17.3008C25.729 21.9421 21.9744 25.6967 17.3331 25.6967C17.0404 25.6967 15.9086 25.6967 15.9086 25.6967C15.9086 25.6967 16.4858 24.7171 16.6364 24.4661L17.7739 22.5703C17.8971 22.3651 18.2034 21.8679 18.2034 21.8679L19.5713 22.7367C19.5713 22.7367 19.2532 23.2633 19.1673 23.4064L18.8734 23.8962C21.8733 23.2003 24.104 20.5146 24.104 17.3008C24.104 17.1081 24.104 16.4883 24.104 16.4883C24.6456 16.4883 25.1873 16.4883 25.729 16.4883Z" fill="black" fill-opacity="0.3"/>
    <path fill-rule="evenodd" clip-rule="evenodd" d="M0.270791 9.44629C0.270791 9.44629 0.270791 8.8265 0.270791 8.63374C0.270791 3.99251 4.02539 0.237905 8.66662 0.237905C8.95934 0.237905 10.0911 0.237905 10.0911 0.237905C10.0911 0.237905 9.51394 1.21743 9.36333 1.46843L8.22584 3.36427C8.10269 3.56951 7.79634 4.06669 7.79634 4.06669L6.42848 3.19791C6.42848 3.19791 6.74656 2.6713 6.83241 2.52821L7.12633 2.03834C4.12648 2.73431 1.89579 5.41995 1.89579 8.63374C1.89579 8.8265 1.89579 9.44629 1.89579 9.44629C1.35413 9.44624 0.812457 9.44624 0.270791 9.44629Z" fill="black" fill-opacity="0.3"/>
    <path d="M16.087 16.608C16.087 20.3022 13.097 23.2922 9.40286 23.2922C5.70869 23.2922 2.71869 20.3022 2.71869 16.608C2.71869 12.9139 5.70869 9.92383 9.40286 9.92383C9.57619 9.92383 9.73869 9.93468 9.92286 9.94552C13.2054 10.1947 15.827 12.8163 16.0762 16.0988C16.0762 16.2613 16.087 16.4239 16.087 16.608Z" fill="black" fill-opacity="0.3"/>
    <path d="M23.292 9.39216C23.292 13.0863 20.302 16.0764 16.6079 16.0764H16.077C15.8279 12.7939 13.2062 10.1721 9.92371 9.92298V9.39216C9.92371 5.69799 12.9137 2.70801 16.6079 2.70801C20.302 2.70801 23.292 5.69799 23.292 9.39216Z" fill="black" fill-opacity="0.6"/>
</svg>