<svg width="26" height="26" viewBox="0 0 26 26" fill="none" xmlns="http://www.w3.org/2000/svg">
    <path d="M18.742 18.7846C19.9386 18.7846 20.9087 17.8146 20.9087 16.6179V7.20362L22.2346 7.20362C23.3391 7.20361 24.2346 8.09905 24.2346 9.20362V20.1753C24.2346 21.2799 23.3392 22.1753 22.2346 22.1753H7.17872C6.07415 22.1753 5.17871 21.2799 5.17872 20.1753L5.17872 18.7846H18.742Z" fill="black" fill-opacity="0.6"/>
    <path d="M20.9084 16.7847C20.9084 17.8893 20.013 18.7847 18.9084 18.7847H3.85255C2.74797 18.7847 1.85254 17.8893 1.85254 16.7847L1.85257 5.81301C1.85257 4.70844 2.748 3.81301 3.85257 3.81301L18.9084 3.81299C20.013 3.81299 20.9084 4.70842 20.9084 5.81299V16.7847Z" fill="black" fill-opacity="0.3"/>
    <path d="M11.3752 14.2352C12.9547 14.2352 14.2352 12.9547 14.2352 11.3752C14.2352 9.79562 12.9547 8.51514 11.3752 8.51514C9.79562 8.51514 8.51514 9.79562 8.51514 11.3752C8.51514 12.9547 9.79562 14.2352 11.3752 14.2352Z" fill="black" fill-opacity="0.6"/>
    <path d="M16.748 8.9375L16.7481 13.8125H18.373V8.93755L16.748 8.9375Z" fill="black" fill-opacity="0.6"/>
    <path d="M4.36621 8.9375L4.36623 13.8125H5.99121V8.93755L4.36621 8.9375Z" fill="black" fill-opacity="0.6"/>
</svg>