<svg width="48" height="48" viewBox="0 0 48 48" fill="none"
     xmlns="http://www.w3.org/2000/svg">
    <circle cx="24" cy="24" r="24" fill="#464DF0"/>
    <path
            d="M36.1713 19.0816L33.9793 20.3305V29.6714L23.9955 35.3901L14.006 29.6714V18.2369L23.9955 12.5126L32.0418 17.1247L34.2357 15.8687L23.9956 10L11.8198 16.9764V30.932L23.9955 37.9084L36.1713 30.932V19.0816Z"
            fill="#FAFAFA"/>
    <path
            d="M33.2433 18.673L34.452 19.3393L35.6607 18.673V17.265L34.452 16.5697L33.2433 17.265V18.673Z"
            fill="#FAFAFA"/>
    <path
            d="M21.0658 29.9607H19.314V24.1317H25.1532C25.7056 24.1257 26.2334 23.904 26.6225 23.5147C27.0115 23.1255 27.2304 22.5999 27.2319 22.0516C27.235 21.7806 27.1823 21.5117 27.0769 21.2616C26.9714 21.0114 26.8156 20.7854 26.6187 20.5973C26.4284 20.4032 26.2004 20.2492 25.9486 20.1446C25.6967 20.04 25.4262 19.9871 25.1532 19.9889H19.314V18.2159H25.159C26.1823 18.222 27.162 18.628 27.8856 19.346C28.6091 20.0641 29.0184 21.0362 29.0245 22.0516C29.0307 22.8289 28.7919 23.5886 28.3414 24.2244C27.9267 24.8328 27.3423 25.3079 26.6597 25.5918C25.9837 25.8046 25.2783 25.9102 24.5692 25.9048H21.0658V29.9607Z"
            fill="#FAFAFA"/>
    <path
            d="M26.9371 29.8161H28.9809L27.1883 26.7163C26.5996 26.9243 25.9844 27.0492 25.3606 27.0871L26.9371 29.8161Z"
            fill="#FAFAFA"/>
</svg>