<svg width="23" height="26" viewBox="0 0 23 26" fill="none" xmlns="http://www.w3.org/2000/svg">
    <path d="M20.805 9.83325L20.7038 9.89075V10.0071V18.2597L11.4999 23.5185L2.29091 18.2596V7.74032L11.4999 2.47632L18.628 6.55195L18.7272 6.60868L18.8265 6.55201L19.9174 5.92903L20.2213 5.75545L19.9175 5.58173L11.5992 0.82637L11.5 0.769631L11.4007 0.826361L0.900756 6.82766L0.8 6.88525V7.0013V18.9987V19.1148L0.900756 19.1724L11.4007 25.1736L11.5 25.2304L11.5992 25.1736L22.0992 19.1724L22.2 19.1148V18.9987V9.38417V9.04046L21.9012 9.21028L20.805 9.83325Z" fill="#01565B" stroke="#01565B" stroke-width="0.4"/>
    <path d="M8.86836 18.3815H7.29492V13.1589H12.5397C13.0359 13.1534 13.51 12.9548 13.8594 12.606C14.2088 12.2573 14.4055 11.7863 14.4068 11.2951C14.4096 11.0523 14.3623 10.8113 14.2676 10.5873C14.1728 10.3631 14.0329 10.1606 13.8561 9.9921C13.6851 9.81813 13.4803 9.68018 13.2541 9.58652C13.0279 9.49279 12.7849 9.44534 12.5397 9.44695H7.29492V7.8584H12.5449C13.464 7.86385 14.344 8.22768 14.994 8.871C15.6438 9.51435 16.0114 10.3854 16.0169 11.2951C16.0225 11.9916 15.808 12.6722 15.4033 13.2419C15.0309 13.787 14.506 14.2127 13.8928 14.4671C13.2857 14.6577 12.6521 14.7523 12.0152 14.7475H8.86836V18.3815Z" fill="#01565B"/>
    <path d="M15.9783 18.252H14.1426L12.7266 15.8068C13.2868 15.7729 13.8394 15.661 14.3681 15.4746L15.9783 18.252Z" fill="#01565B"/>
    <path d="M19.8066 8.26828L20.8923 8.86532L21.978 8.26828V7.00676L20.8923 6.38379L19.8066 7.00676V8.26828Z" fill="#01565B"/>
</svg>
