<svg width="48" height="48" viewBox="0 0 48 48" fill="none" xmlns="http://www.w3.org/2000/svg">
    <rect width="48" height="48" rx="24" fill="#FEC969"/>
    <path fill-rule="evenodd" clip-rule="evenodd" d="M34.7019 45.4876L29.7348 31.1234H17.0165L19.0401 46.7629C19.0745 47.0294 19.1442 47.2864 19.2452 47.529C20.7821 47.8379 22.3721 48 24 48C27.8456 48 31.4799 47.0955 34.7019 45.4876Z" fill="#F18374"/>
    <path d="M14.863 17.5197C14.863 17.5197 11.4898 31.7506 13.6599 36.5762C15.8298 41.4014 23.9628 38.8896 30.0755 32.9121L31.5701 18.1073L14.863 17.5197Z" fill="url(#paint0_linear_741_4112)"/>
    <path d="M28.0267 26.3725C27.7011 26.319 27.4998 25.99 27.6052 25.6772C27.9245 24.7259 28.4885 22.8075 28.4271 21.2732C28.4271 21.2732 29.4208 20.197 24.9255 20.29C20.4299 20.3831 13.7098 20.4598 11.4427 17.2053C9.23238 14.0321 10.3218 4.31419 17.5805 9.93365C17.8567 10.1472 18.2623 10.0477 18.3979 9.72617C18.9844 8.33694 20.6929 5.32646 24.3164 5.93447C27.7069 6.50292 28.6302 8.63735 28.8814 9.7695C28.9554 10.1023 29.3173 10.2816 29.6251 10.1351C31.0831 9.44128 34.6996 8.22771 37.4054 11.5563C39.6339 14.2976 39.1742 16.2992 38.5612 17.3795C38.3628 17.7296 38.6019 18.1579 39.0039 18.1747C40.0928 18.2198 41.6188 18.7346 42.1056 21.1313C42.779 24.4448 39.052 25.1113 37.9731 25.2343C37.7964 25.2541 37.6402 25.358 37.558 25.5154C36.9245 26.7351 34.0023 31.9736 29.7871 33.6148C29.422 33.7568 29.0331 33.4612 29.0629 33.0707L29.515 27.11C29.5363 26.8332 29.3419 26.5865 29.0678 26.5416L28.0267 26.3725Z" fill="#333333"/>
    <defs>
        <linearGradient id="paint0_linear_741_4112" x1="-314.276" y1="214.872" x2="-285.145" y2="198.511" gradientUnits="userSpaceOnUse">
            <stop stop-color="#FF9C8E"/>
            <stop offset="1" stop-color="#FF9D8F"/>
        </linearGradient>
    </defs>
</svg>
