<svg width="25" height="24" viewBox="0 0 25 24" fill="none" xmlns="http://www.w3.org/2000/svg">
    <path d="M12.9971 21.9996C18.5071 21.9996 22.9971 17.5096 22.9971 11.9996C22.9971 6.48964 18.5071 1.99964 12.9971 1.99964C7.48707 1.99964 2.99708 6.48964 2.99708 11.9996C2.99708 17.5096 7.48707 21.9996 12.9971 21.9996ZM13.7471 15.9996C13.7471 16.4096 13.4071 16.7496 12.9971 16.7496C12.5871 16.7496 12.2471 16.4096 12.2471 15.9996V10.9996C12.2471 10.5896 12.5871 10.2496 12.9971 10.2496C13.4071 10.2496 13.7471 10.5896 13.7471 10.9996V15.9996ZM12.0771 7.61964C12.1271 7.48964 12.1971 7.38964 12.2871 7.28964C12.3871 7.19964 12.4971 7.12964 12.6171 7.07964C12.7371 7.02964 12.8671 6.99964 12.9971 6.99964C13.1271 6.99964 13.2571 7.02964 13.3771 7.07964C13.4971 7.12964 13.6071 7.19964 13.7071 7.28964C13.7971 7.38964 13.8671 7.48964 13.9171 7.61964C13.9671 7.73964 13.9971 7.86964 13.9971 7.99964C13.9971 8.12964 13.9671 8.25964 13.9171 8.37964C13.8671 8.49964 13.7971 8.60964 13.7071 8.70964C13.6071 8.79964 13.4971 8.86964 13.3771 8.91964C13.1371 9.01964 12.8571 9.01964 12.6171 8.91964C12.4971 8.86964 12.3871 8.79964 12.2871 8.70964C12.1971 8.60964 12.1271 8.49964 12.0771 8.37964C12.0271 8.25964 11.9971 8.12964 11.9971 7.99964C11.9971 7.86964 12.0271 7.73964 12.0771 7.61964Z" fill="#A7A7A7"/>
</svg>
