<svg width="24" height="24" viewBox="0 0 24 24" fill="none" xmlns="http://www.w3.org/2000/svg">
    <path d="M17.535 7.77C17.465 7.76 17.395 7.76 17.325 7.77C15.775 7.72 14.545 6.45 14.545 4.89C14.545 3.3 15.835 2 17.435 2C19.025 2 20.325 3.29 20.325 4.89C20.315 6.45 19.085 7.72 17.535 7.77Z" fill="#9FD8AC"/>
    <path d="M6.44503 7.77C6.51503 7.76 6.58503 7.76 6.65503 7.77C8.20503 7.72 9.43503 6.45 9.43503 4.89C9.43503 3.3 8.14503 2 6.54503 2C4.95503 2 3.65503 3.29 3.65503 4.89C3.66503 6.45 4.89503 7.72 6.44503 7.77Z" fill="#9FD8AC"/>
    <path d="M12.1251 15.87C12.0451 15.86 11.9551 15.86 11.8651 15.87C10.0251 15.81 8.55505 14.3 8.55505 12.44C8.55505 10.54 10.0851 9 11.9951 9C13.8951 9 15.4351 10.54 15.4351 12.44C15.4351 14.3 13.9751 15.81 12.1251 15.87Z" fill="#01565B"/>
    <path d="M16.2465 14.9626C16.6844 14.2242 16.9351 13.3613 16.9351 12.44C16.9351 11.7871 16.8084 11.1638 16.5783 10.5933C16.9408 10.2269 17.4439 10 18 10H20C21.1046 10 22 10.8954 22 12V14C22 15.1046 21.1046 16 20 16H18C17.2444 16 16.5866 15.581 16.2465 14.9626Z" fill="#9FD8AC"/>
    <path d="M7.41376 10.5853C7.18231 11.1582 7.05505 11.7843 7.05505 12.44C7.05505 13.3646 7.30847 14.2297 7.74986 14.9693C7.40863 15.584 6.7529 16 6 16H4C2.89543 16 2 15.1046 2 14V12C2 10.8954 2.89543 10 4 10H6C6.55206 10 7.05187 10.2237 7.41376 10.5853Z" fill="#9FD8AC"/>
    <rect x="8" y="17" width="8" height="5" rx="2" fill="#01565B"/>
</svg>