<svg width="24" height="24" viewBox="0 0 24 24" fill="none" xmlns="http://www.w3.org/2000/svg">
    <path d="M22 14.5C22 13.9477 21.5523 13.5 21 13.5H14.5C13.9477 13.5 13.5 13.9477 13.5 14.5V21C13.5 21.5523 13.9477 22 14.5 22H21C21.5523 22 22 21.5523 22 21V14.5Z" fill="#01565B"/>
    <path d="M10.5 3C10.5 2.44772 10.0523 2 9.49998 2H3C2.44772 2 2 2.44772 2 3V9.5C2 10.0523 2.44772 10.5 3 10.5H9.49998C10.0523 10.5 10.5 10.0523 10.5 9.5V3Z" fill="#01565B"/>
    <path d="M22 4C22 2.89543 21.1045 2 20 2H15.5C14.3954 2 13.5 2.89543 13.5 4V8.5C13.5 9.60457 14.3954 10.5 15.5 10.5H20C21.1045 10.5 22 9.60457 22 8.5V4Z" fill="#9FD8AC"/>
    <path d="M10.5 15.5C10.5 14.3954 9.60455 13.5 8.49998 13.5H4C2.89543 13.5 2 14.3954 2 15.5V20C2 21.1046 2.89543 22 4 22H8.49998C9.60455 22 10.5 21.1046 10.5 20V15.5Z" fill="#9FD8AC"/>
</svg>