<svg width="24" height="24" viewBox="0 0 24 24" fill="none" xmlns="http://www.w3.org/2000/svg">
    <path d="M20 20C20 21.1046 19.1046 22 18 22H6C4.89543 22 4 21.1046 4 20V4C4 2.89543 4.89543 2 6 2H11.4444C11.9967 2 12.4444 2.44772 12.4444 3V9C12.4444 9.55228 12.8922 10 13.4444 10H19C19.5523 10 20 10.4477 20 11V20Z" fill="#9FD8AC"/>
    <path d="M19.5173 8.5H14.5C14.2239 8.5 14 8.27614 14 8L14 2.55624C14 2.07151 14.5013 1.8196 14.8095 2.14944L19.8451 7.53806C20.1659 7.88138 19.9551 8.5 19.5173 8.5Z" fill="#01565B"/>
    <path d="M14.5 15H7L7.00003 13.5H14.5V15Z" fill="#01565B"/>
    <path d="M12.5 18.5H7L7.00002 17H12.5V18.5Z" fill="#01565B"/>
</svg>