<svg width="24" height="24" viewBox="0 0 24 24" fill="none" xmlns="http://www.w3.org/2000/svg">
    <path fill-rule="evenodd" clip-rule="evenodd" d="M3.53636 9.49038L3.5 9.50007C3.5 9.50007 3.87285 3.76662 5.51091 3.36366C6.95161 3.00926 9.56125 6.62381 10.1692 7.49994H13.7957C14.4037 6.62378 17.0133 3.00928 18.454 3.36368C20.092 3.76664 20.5 9.50007 20.5 9.50007L20.4637 9.49045C21.4188 10.5531 22 11.9586 22 13.4999V14.4999C22 17.8136 19.3137 20.4999 16 20.4999H8C4.68629 20.4999 2 17.8136 2 14.4999V13.4999C2 11.9586 2.58118 10.553 3.53636 9.49038Z" fill="#9FD8AC"/>
    <path d="M3.5 15.5C3.5 12.7386 5.73858 10.5 8.5 10.5H15.3333C18.0947 10.5 20.3333 12.7386 20.3333 15.5C20.3333 18.2614 18.0947 20.5 15.3333 20.5H8.5C5.73858 20.5 3.5 18.2614 3.5 15.5Z" fill="#01565B"/>
    <rect x="8" y="14" width="2" height="3" rx="1" fill="white"/>
    <rect x="14" y="14" width="2" height="3" rx="1" fill="white"/>
</svg>