<svg width="24" height="24" viewBox="0 0 24 24" fill="none" xmlns="http://www.w3.org/2000/svg">
    <path d="M12 5.74326V21.2C12.1639 21.2 12.3375 21.171 12.4725 21.0939L12.5111 21.0746C14.3624 20.0622 17.5925 19.0015 19.6849 18.7219L19.9646 18.6833C20.8903 18.5676 21.6424 17.6998 21.6424 16.7741V5.12614C21.6424 3.9787 20.7071 3.11089 19.5596 3.20732C17.5347 3.37124 14.4685 4.39335 12.7521 5.46366L12.5111 5.60826C12.3664 5.69504 12.1832 5.74326 12 5.74326Z" fill="#9FD8AC"/>
    <path d="M2.35767 5.13574V16.7741C2.35767 17.6997 3.10976 18.5675 4.03543 18.6832L4.35364 18.7219C6.45568 19.0015 9.69553 20.0717 11.5469 21.0938C11.6722 21.171 11.8265 21.1999 12 21.1999V5.74321C11.8168 5.74321 11.6336 5.69499 11.489 5.6082L11.3251 5.50215C9.60871 4.42221 6.53279 3.39048 4.50789 3.21692H4.45004C3.3026 3.12049 2.35767 3.97865 2.35767 5.13574Z" fill="#01565B"/>
    <path d="M18.7496 3.31328V7.44983C18.7496 7.83552 18.3254 8.06692 17.9975 7.85479L16.8212 7.07376L15.6448 7.85479C15.3266 8.06692 14.8927 7.83552 14.8927 7.44983V4.41246C16.1558 3.91106 17.5636 3.50613 18.7496 3.31328Z" fill="#01565B"/>
</svg>