<svg width="24" height="24" viewBox="0 0 24 24" fill="none" xmlns="http://www.w3.org/2000/svg">
    <path d="M21.0289 11.5977V17.2674C21.0289 19.8798 18.8761 22 16.2234 22H7.82352C5.17091 22 3.01807 19.8798 3.01807 17.2674V11.664C3.74849 12.4401 4.78647 12.885 5.91095 12.885C7.12192 12.885 8.28484 12.2887 9.01527 11.3327C9.66881 12.2887 10.7837 12.885 12.0235 12.885C13.2537 12.885 14.3493 12.3171 15.0125 11.3705C15.7525 12.3076 16.8962 12.885 18.088 12.885C19.2509 12.885 20.3081 12.4212 21.0289 11.5977Z" fill="#9FD8AC"/>
    <path d="M21.9804 8.64459L21.7017 6.02272C21.298 3.16422 19.9813 2 17.1653 2H13.4747L14.1859 9.09892C14.1955 9.19357 14.2052 9.29769 14.2052 9.47753C14.2628 9.96972 14.4166 10.4241 14.6473 10.8311C15.3392 12.0805 16.6848 12.885 18.088 12.885C19.3662 12.885 20.5195 12.3266 21.2403 11.3422C21.817 10.585 22.0765 9.62897 21.9804 8.64459Z" fill="#7BCB8E"/>
    <path d="M6.82404 2C3.99843 2 2.69135 3.16422 2.27808 6.05112L2.01859 8.65405C1.92248 9.66683 2.20119 10.6512 2.80668 11.4179C3.53711 12.355 4.66158 12.885 5.911 12.885C7.31419 12.885 8.65972 12.0805 9.34209 10.85C9.59198 10.4241 9.75536 9.93186 9.80342 9.42074L10.5531 2.00947H6.82404V2Z" fill="#7BCB8E"/>
    <path d="M11.3988 16.5859C10.1783 16.7089 9.25562 17.7312 9.25562 18.9427V22H14.7819V19.274C14.7915 17.2958 13.6094 16.3587 11.3988 16.5859Z" fill="#01565B"/>
    <path d="M14.8971 2H9.13056L8.41936 8.96641C8.36169 9.61004 8.4578 10.2158 8.69807 10.7648C9.25551 12.0521 10.5626 12.885 12.0234 12.885C13.5035 12.885 14.7818 12.071 15.3584 10.7743C15.5314 10.3673 15.6371 9.894 15.6468 9.41127V9.23143L14.8971 2Z" fill="#01565B"/>
</svg>