<svg width="24" height="24" viewBox="0 0 24 24" fill="none" xmlns="http://www.w3.org/2000/svg">
    <path fill-rule="evenodd" clip-rule="evenodd" d="M23.75 15.2199C23.75 15.2199 23.75 15.792 23.75 15.97C23.75 20.2542 20.2842 23.72 16 23.72C15.7298 23.72 14.6851 23.72 14.6851 23.72C14.6851 23.72 15.2178 22.8158 15.3569 22.5841L16.4069 20.8341C16.5205 20.6446 16.8033 20.1857 16.8033 20.1857L18.066 20.9877C18.066 20.9877 17.7724 21.4738 17.6931 21.6058L17.4218 22.058C20.1909 21.4156 22.25 18.9365 22.25 15.97C22.25 15.792 22.25 15.2199 22.25 15.2199C22.75 15.22 23.25 15.22 23.75 15.2199Z" fill="#9FD8AC"/>
    <path fill-rule="evenodd" clip-rule="evenodd" d="M0.250014 8.71997C0.250014 8.71997 0.250014 8.14785 0.250014 7.96993C0.250014 3.68571 3.7158 0.219924 8.00001 0.219924C8.27022 0.219924 9.31494 0.219924 9.31494 0.219924C9.31494 0.219924 8.78215 1.1241 8.64313 1.3558L7.59314 3.1058C7.47946 3.29526 7.19668 3.75419 7.19668 3.75419L5.93404 2.95224C5.93404 2.95224 6.22765 2.46613 6.3069 2.33405L6.57821 1.88186C3.80911 2.52429 1.75002 5.00335 1.75002 7.96993C1.75002 8.14785 1.75002 8.71997 1.75002 8.71997C1.25002 8.71993 0.750014 8.71993 0.250014 8.71997Z" fill="#9FD8AC"/>
    <path d="M14.85 15.33C14.85 18.74 12.09 21.5 8.68001 21.5C5.27001 21.5 2.51001 18.74 2.51001 15.33C2.51001 11.92 5.27001 9.15997 8.68001 9.15997C8.84001 9.15997 8.99001 9.16999 9.16001 9.17999C12.19 9.40999 14.61 11.83 14.84 14.86C14.84 15.01 14.85 15.16 14.85 15.33Z" fill="#9FD8AC"/>
    <path d="M21.4999 8.66998C21.4999 12.08 18.7399 14.84 15.3299 14.84H14.8399C14.6099 11.81 12.1899 9.38997 9.15991 9.15997V8.66998C9.15991 5.25998 11.9199 2.5 15.3299 2.5C18.7399 2.5 21.4999 5.25998 21.4999 8.66998Z" fill="#01565B"/>
</svg>