<svg width="24" height="24" viewBox="0 0 24 24" fill="none" xmlns="http://www.w3.org/2000/svg">
    <path d="M17.3 17.3401C18.4046 17.3401 19.3 16.4446 19.3 15.3401V6.64991L20.3701 6.64991C21.4746 6.6499 22.3701 7.54533 22.3701 8.64991V18.4699C22.3701 19.5745 21.4746 20.4699 20.3701 20.4699H6.78003C5.67546 20.4699 4.78003 19.5745 4.78003 18.4699L4.78004 17.3401H17.3Z" fill="#01565B"/>
    <path d="M19.3 15.3401C19.3 16.4446 18.4046 17.3401 17.3 17.3401H3.70997C2.6054 17.3401 1.70996 16.4446 1.70997 15.3401L1.70999 5.52004C1.70999 4.41547 2.60542 3.52004 3.70999 3.52004L17.3 3.52002C18.4046 3.52002 19.3 4.41545 19.3 5.52002V15.3401Z" fill="#9FD8AC"/>
    <path d="M10.5 13.1399C11.958 13.1399 13.14 11.9579 13.14 10.4999C13.14 9.04185 11.958 7.85986 10.5 7.85986C9.04197 7.85986 7.85999 9.04185 7.85999 10.4999C7.85999 11.9579 9.04197 13.1399 10.5 13.1399Z" fill="#01565B"/>
    <path d="M15.46 8.25L15.46 12.75H16.96V8.25005L15.46 8.25Z" fill="#01565B"/>
    <path d="M4.03003 8.25L4.03005 12.75H5.53003V8.25005L4.03003 8.25Z" fill="#01565B"/>
</svg>