<svg width="1366" height="942" viewBox="0 0 1366 942" fill="none" xmlns="http://www.w3.org/2000/svg">
    <g clip-path="url(#clip0_774_3459)">
        <rect width="1366" height="942" fill="#EEE4E4"/>
        <g opacity="0.5">
            <g filter="url(#filter0_f_774_3459)">
                <ellipse cx="1107.8" cy="325.674" rx="475.5" ry="515.5" transform="rotate(-90 1107.8 325.674)" fill="#CBFFD0"/>
            </g>
            <g filter="url(#filter1_f_774_3459)">
                <ellipse cx="475.885" cy="912" rx="434" ry="389" transform="rotate(-144.79 475.885 912)" fill="#41D562" fill-opacity="0.4"/>
            </g>
            <g filter="url(#filter2_f_774_3459)">
                <circle cx="482.799" cy="189.501" r="461.5" transform="rotate(-90 482.799 189.501)" fill="url(#paint0_linear_774_3459)"/>
            </g>
            <g filter="url(#filter3_f_774_3459)">
                <circle cx="1153.5" cy="859.5" r="451.5" transform="rotate(-90 1153.5 859.5)" fill="#E8CFF8"/>
            </g>
        </g>
        <path d="M11.9636 1099.49C17.3178 983.319 91.3785 898.626 150.889 830.57L155.116 825.741C162.02 818.475 177.947 799.035 176.695 775.554C175.933 761.263 168.854 748.325 155.659 737.111C147.746 730.388 140.426 724.105 133.465 718.127C102.681 691.7 78.3688 670.826 40.6182 644.647C26.8257 635.087 13.2525 626.036 0 617.531V618.868C13.0465 627.253 26.4064 636.168 39.9752 645.578C77.6773 671.722 101.971 692.578 132.729 718.986C139.692 724.964 147.012 731.25 154.926 737.974C167.877 748.98 174.823 761.644 175.566 775.614C176.793 798.659 161.1 817.801 154.28 824.976L150.035 829.832C90.4101 898.012 16.2069 982.875 10.835 1099.45C10.2612 1111.86 5.43225 1119.45 0 1122.03V1123.38C5.8766 1120.96 11.3265 1113.27 11.9636 1099.49" fill="white" fill-opacity="0.64"/>
        <path d="M38.3009 1100.71C43.2311 993.734 113.931 912.886 170.742 847.923L174.986 843.067C186.913 829.417 196.579 817.322 203.71 807.118C212.547 794.474 228.998 770.939 190.152 733.435C148.264 692.988 103.008 655.826 55.6408 622.981C36.3262 609.587 17.7357 597.515 0 586.674V587.993C17.5371 598.731 35.9098 610.675 54.9978 623.908C102.315 656.719 147.524 693.843 189.369 734.248C227.518 771.083 211.428 794.104 202.783 806.47C195.675 816.64 186.036 828.705 174.136 842.325L169.888 847.184C112.964 912.276 42.1203 993.289 37.1723 1100.66C34.8755 1150.46 26.0356 1179.43 9.35044 1191.86C6.04873 1194.31 2.92064 1195.65 0 1195.97V1197.1C3.17518 1196.79 6.46367 1195.41 10.0229 1192.76C27.0037 1180.13 35.9878 1150.88 38.3009 1100.71" fill="white" fill-opacity="0.64"/>
        <path d="M498.051 335.56C490.732 306.65 431.671 298.921 363.286 289.972C346.387 287.761 328.914 285.474 311.942 282.796C236.963 270.961 168.324 233.321 101.946 196.92C68.7062 178.689 34.7475 160.078 0 144.77V147.645C34.2855 162.824 67.8323 181.22 100.679 199.233C167.255 235.743 236.098 273.492 311.529 285.399C328.537 288.081 346.027 290.371 362.944 292.586C427.573 301.046 488.615 309.031 495.493 336.207C500.857 357.38 473.281 389.498 411.192 434.401C324.08 497.402 250.983 526.744 181.153 526.744C141.471 526.74 102.122 516.89 64.2024 497.462C40.602 485.371 19.8309 470.662 0 455.822V459.114C19.4454 473.619 39.8426 487.944 63.0005 499.809C101.297 519.429 141.048 529.377 181.152 529.377C181.156 529.377 181.156 529.377 181.16 529.377C251.571 529.377 325.159 499.876 412.74 436.536C476.679 390.297 503.784 358.212 498.051 335.56" fill="white" fill-opacity="0.64"/>
        <path d="M9.76831 930.108C19.9192 912.25 33.0775 896.057 45.8034 880.395C64.1598 857.803 83.1416 834.446 93.3575 805.744C111.371 755.135 76.0632 731.751 38.6817 706.997C35.2345 704.714 31.7665 702.417 28.2838 700.059C22.1233 695.893 16.3041 691.957 10.5731 687.987C7.75699 686.032 4.28752 683.531 0 680.412V681.806C3.97266 684.695 7.25964 687.064 9.93017 688.913C15.667 692.891 21.4876 696.827 27.6879 701.019C31.1368 703.355 34.6077 705.652 38.058 707.939C75.0594 732.445 110.01 755.591 92.2934 805.367C82.1411 833.884 63.2227 857.166 44.9261 879.683C32.1711 895.379 18.9848 911.61 8.78544 929.546C5.73241 934.918 2.94271 941.901 0 949.303V952.354C0.306041 951.585 0.615025 950.817 0.918124 950.056C3.89616 942.56 6.70937 935.486 9.76831 930.108Z" fill="white" fill-opacity="0.64"/>
        <path d="M621.791 287.315C618.778 292.091 611.173 292.073 599.394 287.338C596.645 286.23 593.831 285.24 591.108 284.276C575.954 278.927 562.865 274.305 569.826 253.928C574.87 239.177 581.985 231.38 590.407 231.38C598.645 231.38 607.459 238.917 613.986 251.547C622.514 268.169 625.43 281.541 621.791 287.315V287.315ZM590.407 229.497C583.917 229.497 574.772 233.629 568.044 253.317C560.481 275.462 575.054 280.603 590.479 286.05C593.183 287.006 595.982 287.993 598.694 289.086C604.773 291.526 609.885 292.766 613.889 292.766C618.329 292.766 621.52 291.27 623.38 288.321C629.147 279.179 619.904 258.956 615.663 250.684C608.804 237.415 599.364 229.497 590.407 229.497" fill="white" fill-opacity="0.64"/>
        <path d="M101.797 847.18C103.482 845.172 105.194 843.161 106.916 841.135C131.162 812.614 156.231 783.12 127.737 747.853C105.696 720.575 72.4318 698.081 43.0812 678.238C36.9987 674.125 31.2545 670.237 25.5956 666.316C21.7981 663.683 16.6542 659.928 10.6982 655.581C7.4259 653.193 3.82994 650.568 0 647.796V649.189C3.57833 651.785 6.95213 654.244 10.0331 656.493C15.9936 660.843 21.1433 664.602 24.9527 667.243C30.6159 671.171 36.3645 675.059 42.4484 679.172C71.7316 698.973 104.924 721.415 126.859 748.561C154.764 783.102 130.001 812.233 106.055 840.4C104.332 842.43 102.618 844.446 100.933 846.457C79.8781 871.55 52.9819 905.153 31.7077 942.575C18.7921 965.295 8.15569 989.168 0 1013.66V1017.37C8.26459 991.775 19.2247 966.824 32.6891 943.136C53.919 905.793 80.7727 872.236 101.797 847.18" fill="white" fill-opacity="0.64"/>
        <path d="M80.3433 465.949C108.973 480.616 133.296 487.449 156.892 487.449C181.592 487.449 203.554 480.029 228.987 471.437C243.413 466.563 259.766 461.037 278.302 456.385C287.704 454.028 295.902 453.753 301.251 453.753C304.845 453.753 308.291 453.892 311.621 454.028C314.78 454.152 317.762 454.276 320.714 454.276C335.983 454.272 348.121 450.664 361.428 432.689C370.404 420.561 373.766 411.193 376.734 402.933C381.171 390.571 384.674 380.811 404.208 366.844C409.218 363.259 416.386 360.441 423.324 357.714C434.488 353.322 444.131 349.529 444.53 343.103C444.85 337.898 438.79 332.086 425.445 324.824C409.455 316.145 386.64 314.974 366.433 314.974C357.419 314.974 347.954 315.252 338.803 315.52C329.607 315.791 320.096 316.07 310.993 316.07C290.705 316.07 276.485 314.665 264.886 311.516C199.336 293.715 137.875 260.011 83.6493 230.273C55.1876 214.664 27.5702 199.541 0 186.542V188.625C27.2598 201.518 54.5872 216.483 82.7461 231.926C137.062 261.713 198.625 295.474 264.393 313.331C276.16 316.529 290.533 317.953 310.993 317.953C320.124 317.953 329.648 317.674 338.858 317.403C347.997 317.136 357.448 316.857 366.433 316.857C386.403 316.857 408.928 318.002 424.544 326.477C436.824 333.163 442.914 338.715 442.651 342.983C442.327 348.215 432.76 351.977 422.635 355.959C415.591 358.731 408.31 361.594 403.112 365.315C383.1 379.621 379.329 390.13 374.96 402.296C372.037 410.436 368.725 419.664 359.912 431.567C347.077 448.905 335.398 452.389 320.714 452.393C317.802 452.393 314.837 452.272 311.699 452.144C308.347 452.009 304.884 451.869 301.251 451.869C295.802 451.869 287.45 452.148 277.843 454.559C259.236 459.229 242.845 464.766 228.383 469.652C203.11 478.191 181.281 485.566 156.892 485.566C133.606 485.566 109.555 478.801 81.1995 464.273C55.2788 450.988 31.9666 433.318 9.41666 416.225C6.28856 413.852 3.1487 411.476 0 409.106V411.461C2.76909 413.547 5.52935 415.642 8.28372 417.728C30.8925 434.867 54.2723 452.589 80.3433 465.949" fill="white" fill-opacity="0.64"/>
        <path d="M97.6903 432.09C125.523 446.347 152.81 453.285 181.132 453.293C196.985 453.289 231.214 446.822 261.058 435.996C287.201 426.516 318.379 410.767 318.452 389.584C318.539 364.641 270.375 350.787 241.596 342.508C235.34 340.707 229.934 339.148 226.325 337.841C174.795 319.177 123.648 295.598 65.3648 263.634C43.1166 251.434 21.4052 239.527 0 228.834V230.099C21.2243 240.721 42.7577 252.526 64.8205 264.625C123.158 296.615 174.354 320.217 225.94 338.907C229.584 340.225 235.006 341.785 241.283 343.593C269.753 351.785 317.406 365.492 317.322 389.58C317.196 426.188 213.998 452.159 181.116 452.163C152.996 452.155 125.874 445.259 98.2056 431.085C75.192 419.291 53.2086 402.628 31.9475 386.51C21.6539 378.705 11.066 370.686 0 362.885V364.272C10.8189 371.918 21.1831 379.771 31.2618 387.41C52.5642 403.558 74.5886 420.252 97.6903 432.09" fill="white" fill-opacity="0.64"/>
        <path d="M109.712 408.624C133.717 420.922 157.058 426.907 181.129 426.926C202.023 426.926 229.296 420.726 239.803 407.124C244.372 401.211 245.663 394.273 243.635 386.509C238.868 368.245 200.617 355.333 172.687 345.901C163.66 342.85 155.865 340.217 151.077 337.995C118.804 323.022 86.8702 305.504 55.985 288.561L52.5419 286.674C34.6886 276.885 17.1972 267.298 0 258.42V259.693C17.0206 268.492 34.3311 277.973 51.9976 287.665L55.4419 289.556C86.3432 306.506 118.295 324.032 150.602 339.023C155.446 341.268 163.267 343.912 172.325 346.971C198.45 355.789 237.93 369.123 242.544 386.796C244.477 394.201 243.253 400.812 238.909 406.431C228.633 419.735 201.756 425.796 181.065 425.796C157.242 425.781 134.07 419.833 110.226 407.618C89.2744 396.883 68.2267 380.927 47.863 365.488C33.1378 354.327 17.3296 342.357 0 331.042V332.394C17.0662 343.577 32.6567 355.378 47.1891 366.396C67.5837 381.854 88.671 397.843 109.712 408.624" fill="white" fill-opacity="0.64"/>
        <path d="M668.496 22.5597C670.375 14.9624 672.225 7.46668 673.965 0.00115023H672.029C670.322 7.31978 668.511 14.6647 666.669 22.1077C663.207 36.0782 659.633 50.5196 656.736 65.2661C647.086 114.417 638.765 178.857 660.284 241.403C669.03 266.82 690.817 287.586 710.038 305.907C727.143 322.213 741.915 336.289 740.586 348.127C739.972 353.57 735.994 358.407 728.431 362.912C724.935 364.998 718.965 366.049 710.682 366.049C681.769 366.049 630.754 353.288 593.023 340.639C551.981 326.88 501.414 304.962 493.572 278.678C491.075 270.304 493.124 261.848 499.67 253.539C508.062 242.891 517.072 233.527 525.784 224.468C542.93 206.648 559.123 189.815 569.843 164.827C585.128 129.19 586.985 92.0282 575.354 54.3691C572.54 45.2425 569.7 36.8353 567.195 29.415C563.496 18.4502 560.276 8.88294 558.083 0.00115023H556.125C558.351 9.05998 561.635 18.8231 565.413 30.0177C567.911 37.4267 570.747 45.8189 573.557 54.9229C585.049 92.1413 583.215 128.87 568.11 164.085C557.53 188.756 541.45 205.469 524.428 223.161C515.682 232.254 506.642 241.651 498.194 252.375C491.244 261.193 489.082 270.222 491.768 279.216C499.84 306.272 550.961 328.522 592.424 342.421C630.302 355.122 681.558 367.933 710.682 367.933C719.312 367.933 725.606 366.788 729.395 364.531C737.501 359.702 741.772 354.403 742.454 348.338C743.893 335.573 728.807 321.196 711.338 304.543C692.271 286.369 670.661 265.773 662.066 240.789C640.694 178.669 648.981 114.549 658.586 65.6277C661.471 50.9302 665.042 36.5077 668.496 22.5597Z" fill="white" fill-opacity="0.64"/>
        <path d="M385.375 876.797C389.563 876.797 393.04 878.526 395.703 881.946C404.381 893.058 402.679 918.901 399.839 930.269C386.015 985.556 356.372 1005.2 311.491 1034.95C300.276 1042.38 289.416 1050.93 278.911 1059.19C266.135 1069.24 252.924 1079.64 239.051 1088.04C230.599 1093.15 223.395 1095.29 218.936 1093.99C216.952 1093.42 215.539 1092.2 214.729 1090.35C212.803 1085.96 214.388 1078.26 219.189 1068.68C232.071 1042.96 253.679 1021.13 274.577 1000.02C278.133 996.422 281.648 992.874 285.067 989.352C310.479 963.189 333.069 939.342 352.175 912.418C353.74 910.211 355.527 907.25 357.419 904.117C364.226 892.832 373.551 877.381 384.557 876.816C384.832 876.805 385.104 876.797 385.375 876.797ZM356.451 903.533C354.571 906.648 352.794 909.593 351.251 911.763C332.193 938.619 309.636 962.436 284.258 988.565C280.842 992.083 277.328 995.631 273.775 999.221C252.814 1020.39 231.141 1042.29 218.178 1068.17C213.152 1078.2 211.601 1086.03 213.693 1090.8C214.645 1092.97 216.304 1094.41 218.622 1095.08C219.582 1095.35 220.653 1095.49 221.814 1095.49C226.465 1095.49 232.628 1093.25 239.635 1089C253.567 1080.57 266.808 1070.15 279.61 1060.08C290.098 1051.83 300.942 1043.29 312.124 1035.89C357.216 1006 387.01 986.256 400.935 930.54C403.82 918.991 405.515 892.67 396.596 881.249C393.522 877.313 389.495 875.464 384.497 875.69C372.894 876.281 363.392 892.029 356.451 903.533" fill="white" fill-opacity="0.64"/>
        <path d="M121.541 385.486C129.052 389.336 150.157 396.214 165.479 396.21C170.948 396.21 175.116 395.306 177.871 393.517C183.84 389.641 186.474 386.006 185.922 382.413C184.702 374.476 167.444 369.681 153.577 365.828C147.866 364.242 142.936 362.871 140.138 361.576C107.072 346.234 74.7476 328.5 43.4903 311.351L40.0283 309.452C26.4682 302.017 13.1289 294.71 0 287.76V289.888C12.839 296.702 25.8826 303.844 39.1379 311.114L42.5855 313.004C73.8707 330.165 106.223 347.914 139.346 363.282C142.283 364.645 147.283 366.035 153.072 367.644C165.712 371.154 183.024 375.964 184.06 382.699C184.481 385.445 182.053 388.556 176.843 391.939C174.401 393.524 170.577 394.327 165.479 394.327C150.668 394.33 129.562 387.483 122.402 383.81C103.561 374.152 83.4873 358.935 64.0257 344.181C45.4663 330.113 24.3509 314.116 0 299.565V301.776C23.886 316.134 44.6557 331.86 62.9372 345.722C82.415 360.487 102.555 375.753 121.541 385.486" fill="white" fill-opacity="0.64"/>
        <path d="M65.0134 1101.94C69.5157 1004.31 136.801 927.363 190.865 865.537L195.126 860.663C259.42 787.066 256.81 761.366 226.646 731.602C193.57 698.972 141.435 649.926 70.8796 601.004C46.7978 584.307 22.9781 569.048 0 555.462V557.646C22.6368 571.063 46.0885 586.111 69.8038 602.553C140.243 651.395 192.297 700.362 225.321 732.943C254.616 761.849 257.003 786.968 193.708 859.428L189.448 864.298C135.189 926.346 67.6662 1003.57 63.1342 1101.85C58.879 1194.11 24.1331 1221.2 0 1228.81V1230.78C24.6922 1223.25 60.6772 1196.03 65.0134 1101.94Z" fill="white" fill-opacity="0.64"/>
        <path d="M480.766 32.579C506.582 112.975 517.069 156.653 453.005 193.683C442.489 199.762 430.552 204.252 417.523 207.021C406.479 209.375 394.336 210.569 381.427 210.569C262.339 210.554 98.7585 111.05 10.8777 57.5971L7.8791 55.7703C5.18651 54.1318 2.5734 52.546 0 50.9829V53.1864C2.25852 54.5575 4.55235 55.9511 6.90064 57.3786L9.89928 59.2017C97.9378 112.756 261.811 212.437 381.427 212.452C394.471 212.452 406.747 211.247 417.919 208.866C431.14 206.053 443.261 201.495 453.947 195.314C519.268 157.557 508.68 113.351 482.558 32.0026C479.251 21.7045 475.812 10.9771 472.663 0.00104001H470.701C473.903 11.1767 477.398 22.0964 480.766 32.579" fill="white" fill-opacity="0.64"/>
        <path d="M330.422 21.1096C331.178 23.9384 332.229 27.4226 333.428 31.3475C336.828 42.4855 336.22 49.9962 331.624 53.6762C329.321 55.5218 325.958 56.4559 321.624 56.4559C303.242 56.4559 272.639 40.0558 262.582 34.6658C257.668 32.0329 253.964 30.0554 251.064 28.6052L235.614 20.9778C221.45 14.0433 207.634 7.03736 194.246 0.00122745H191.832C205.822 7.37635 220.273 14.7252 235.116 21.9948L250.56 29.6185C253.445 31.0573 257.143 33.0311 262.049 35.6602C272.167 41.0842 302.958 57.5859 321.624 57.5859C326.222 57.5859 329.824 56.569 332.33 54.5614C337.322 50.5612 338.055 42.6398 334.509 31.0159C333.314 27.1023 332.264 23.6295 331.506 20.7894C329.695 13.9831 327.865 7.07879 326.158 0.00122745H324.997C326.724 7.18802 328.581 14.1978 330.422 21.1096" fill="white" fill-opacity="0.64"/>
        <path d="M445.261 43.9798C455.713 76.5313 465.71 117.355 450.082 144.316C442.346 157.677 428.778 166.502 409.768 170.547C401.259 172.359 391.725 173.282 381.435 173.282C272.786 173.267 115.016 77.2922 30.2554 25.7341L14.6164 16.2347C9.82568 13.3344 4.95109 10.6261 0 8.07607V9.3567C4.74954 11.8163 9.43139 14.4191 14.0308 17.2027L29.6683 26.6984C114.523 78.313 272.468 174.393 381.435 174.408C391.808 174.408 401.417 173.482 410.001 171.651C429.339 167.538 443.155 158.528 451.062 144.885C466.908 117.535 456.862 76.4071 446.338 43.6333C441.826 29.5837 437.355 14.9842 433.524 0.000364153H432.356C436.206 15.1085 440.715 29.8247 445.261 43.9798" fill="white" fill-opacity="0.64"/>
        <path d="M355.899 14.3266C356.584 16.8917 357.54 20.0295 358.648 23.6605C364.116 41.5861 372.38 68.676 364.566 81.17C361.374 86.2701 356.441 89.5997 349.901 91.0612C347.261 91.6526 344.311 91.9501 341.127 91.9501C313.613 91.9501 272.305 69.7984 250.114 57.8995C245.806 55.5905 242.087 53.5979 239.295 52.2042L237.367 51.2438C235.182 50.1552 233.143 49.1419 231.265 48.2191L223.996 44.6521C194.008 29.9659 165.524 14.9369 139.288 0.0020963H137.011C163.741 15.2722 192.832 30.6477 223.498 45.6654L230.768 49.2325C232.643 50.1553 234.681 51.1685 236.864 52.257L238.792 53.2138C241.567 54.5999 245.28 56.5886 249.58 58.8976C271.857 70.8417 313.329 93.0801 341.127 93.0801C344.393 93.0801 347.429 92.7713 350.147 92.1649C356.994 90.6319 362.166 87.1364 365.522 81.7689C373.612 68.8379 365.257 41.4543 359.729 23.3291C358.625 19.7093 357.671 16.583 356.991 14.0329C355.758 9.40746 354.519 4.72926 353.32 0.0020963H352.156C353.379 4.83096 354.641 9.60701 355.899 14.3266" fill="white" fill-opacity="0.64"/>
        <path d="M381.378 7.54241C386.73 27.6338 392.263 48.4145 392.847 69.8544C393.604 97.5808 382.805 113.454 360.753 117.032C357.473 117.563 353.895 117.834 350.114 117.834C311.811 117.834 256.986 90.4919 227.531 75.802C224.659 74.3706 222.013 73.0522 219.634 71.8808L212.374 68.3176C166.557 45.8795 124.09 22.6015 87.6274 0.00154575H85.4834C122.323 22.9217 165.378 46.5613 211.879 69.3308L219.135 72.894C221.513 74.0617 224.155 75.3801 227.027 76.8152C256.565 91.5466 311.545 118.968 350.114 118.968C353.955 118.968 357.595 118.689 360.932 118.147C383.634 114.459 394.749 98.2023 393.977 69.8242C393.386 48.2525 387.838 27.4078 382.47 7.25237C381.83 4.84924 381.189 2.42728 380.553 0.00154575H379.385C380.044 2.52521 380.711 5.04511 381.378 7.54241" fill="white" fill-opacity="0.64"/>
        <path d="M420.159 52.0406C420.712 53.7657 421.281 55.4946 421.85 57.2273C427.869 75.5483 434.095 94.4909 424.042 112.778C415.654 128.037 398.659 140.41 380.737 144.301C378.906 144.697 377.057 145.005 375.245 145.216C370.766 145.736 366.058 146.004 361.253 146.004C310.678 146.004 251.35 116.846 208.03 95.5568L200.778 91.9974C145.117 64.7418 91.3741 32.0507 43.9552 3.20563C41.9423 1.98523 40.2093 0.930651 38.6778 0.000284675H36.5C40.0696 2.16612 43.3699 4.17368 43.3684 4.16992C90.8076 33.0263 144.574 65.7361 200.281 93.0143L207.532 96.5738C250.951 117.908 310.417 147.13 361.253 147.13C366.102 147.13 370.853 146.866 375.376 146.339C377.222 146.124 379.11 145.812 380.978 145.401C399.201 141.446 416.494 128.854 425.033 113.324C435.323 94.6075 429.018 75.424 422.923 56.8769C422.355 55.1442 421.786 53.4191 421.232 51.6977C415.932 35.1847 410.712 17.8919 406.392 0.000284675H405.228C409.567 18.02 414.821 35.4258 420.159 52.0406" fill="white" fill-opacity="0.64"/>
        <path d="M410.895 853.746C426.771 874.082 429.931 917.067 425.054 936.574C408.782 1001.65 372.185 1025.9 325.833 1056.63C323.52 1058.15 321.175 1059.7 318.808 1061.26C290.532 1079.88 258.482 1100.99 240.199 1129.82C230.532 1145.06 226.78 1162.53 223.152 1179.41C219.607 1195.91 215.942 1212.97 206.716 1227.55C200.129 1237.96 192.482 1248.6 185.687 1248.6C180.499 1248.6 175.73 1242.32 171.111 1229.4C169.665 1225.35 169.034 1221.32 169.183 1217.06C169.617 1204.51 176.953 1192.58 184.048 1181.05C190.182 1171.08 195.973 1161.66 197.624 1151.9C200.244 1136.37 196.969 1121.58 193.801 1107.28C189.876 1089.56 186.165 1072.82 192.668 1054.67C200.464 1032.93 226.433 1008.86 247.3 989.515C254.395 982.942 261.094 976.735 266.443 971.224C286.892 950.18 308.036 928.412 326.79 904.192C330.213 899.77 334.073 893.661 338.16 887.19C349.593 869.095 363.822 846.574 379.605 842.679C382.464 841.971 385.251 841.617 387.895 841.617C396.871 841.617 404.608 845.696 410.895 853.746ZM379.153 840.849C362.636 844.928 348.182 867.806 336.567 886.184C332.504 892.614 328.667 898.689 325.301 903.036C306.61 927.177 285.506 948.903 265.094 969.913C259.777 975.386 253.096 981.579 246.02 988.136C225.002 1007.61 198.845 1031.86 190.896 1054.04C184.211 1072.7 188.151 1090.49 191.962 1107.69C195.09 1121.81 198.326 1136.41 195.765 1151.58C194.18 1160.99 188.48 1170.25 182.444 1180.06C175.221 1191.8 167.751 1203.95 167.299 1217C167.146 1221.43 167.832 1225.82 169.339 1230.04C174.327 1243.99 179.521 1250.49 185.687 1250.49C191.9 1250.49 198.452 1244.14 208.307 1228.56C217.712 1213.7 221.413 1196.47 224.994 1179.81C228.589 1163.08 232.304 1145.79 241.788 1130.83C259.856 1102.33 291.726 1081.35 319.845 1062.83C322.212 1061.27 324.559 1059.73 326.89 1058.18C373.567 1027.25 410.431 1002.82 426.88 937.03C431.231 919.617 430.09 875.272 412.379 852.589C403.776 841.568 392.476 837.56 379.153 840.849Z" fill="white" fill-opacity="0.64"/>
        <path d="M399.68 802.107C405.194 810.766 412.189 816.088 419.594 821.72C427.598 827.807 435.874 834.104 442.349 845.141C457.178 870.423 468.617 916.029 461.227 945.616C441.445 1024.75 395.292 1055.33 346.431 1087.71C290.331 1124.88 232.317 1163.32 211.024 1279.01C205.886 1306.93 197.387 1321.68 186.445 1321.68C169.329 1321.68 148.525 1286.07 142.05 1255.43C130.825 1202.34 134.532 1139.05 153.07 1067.32C165.363 1019.75 200.568 985.053 234.615 951.496C252.32 934.049 270.625 916.003 285.374 896.439C288.951 891.693 294.639 885.32 301.227 877.937C322.91 853.638 352.609 820.36 347.422 800.476C345.557 793.334 341.128 786.219 336.437 778.689C331.633 770.979 326.668 763.001 324.893 755.223C322.643 745.358 326.145 743.614 329.235 742.081C330.942 741.23 332.708 740.352 333.137 738.28C333.711 735.519 331.957 731.301 321.458 718.826C315.496 711.744 298.628 702.693 282.318 693.936C265.187 684.741 245.77 674.315 244.151 668.315C240.479 654.694 241.634 649.323 243.249 647.214C244.111 646.088 245.374 645.541 247.106 645.541C263.57 645.541 311.361 692.421 350.595 736.292C351.082 736.838 351.359 737.109 351.373 737.12C358.721 742.699 365.19 744.081 370.898 745.298C378.967 747.019 385.935 748.507 394.312 760.572C398.301 766.316 397.627 773.224 396.919 780.535C396.207 787.884 395.465 795.481 399.68 802.107V802.107ZM396.478 759.069C387.506 746.145 379.705 744.48 371.45 742.721C365.745 741.501 359.847 740.243 353.119 735.158L352.562 734.536C333.339 713.04 268.921 642.905 247.106 642.905C244.532 642.905 242.531 643.813 241.155 645.609C238.241 649.414 238.388 657.067 241.607 669.004C243.522 676.104 261.76 685.894 281.072 696.26C297.163 704.897 313.803 713.831 319.44 720.528C324.499 726.536 331.155 734.86 330.555 737.742C330.393 738.525 329.545 738.981 328.061 739.719C324.696 741.392 319.609 743.923 322.321 755.807C324.196 764.022 329.281 772.184 334.2 780.083C338.78 787.439 343.107 794.385 344.87 801.142C349.702 819.655 319.345 853.676 299.259 876.182C292.632 883.606 286.912 890.02 283.27 894.849C268.637 914.266 250.401 932.237 232.766 949.617C198.463 983.426 162.993 1018.38 150.517 1066.66C131.877 1138.79 128.16 1202.48 139.47 1255.97C145.501 1284.51 166.29 1324.32 186.445 1324.32C199 1324.32 208.143 1309.24 213.618 1279.48C234.708 1164.9 292.245 1126.77 347.888 1089.9C397.186 1057.24 443.754 1026.38 463.785 946.257C471.337 916.022 459.717 869.537 444.62 843.804C437.885 832.319 429.395 825.863 421.191 819.622C413.978 814.137 407.168 808.954 401.906 800.69C398.177 794.833 398.84 788.012 399.544 780.791C400.268 773.325 401.017 765.608 396.478 759.069" fill="white" fill-opacity="0.64"/>
        <path d="M0 514.554C127.016 586.437 263.903 700.793 288.825 757.632C303.792 791.769 267.51 832.558 221.578 884.199C169.382 942.88 104.423 1015.92 100.383 1103.57C95.457 1210.42 42.5015 1254.31 0 1267.58V1270.33C43.4771 1257.09 97.995 1212.63 103.017 1103.69C107.014 1016.97 171.629 944.323 223.548 885.951C270.109 833.605 306.886 792.255 291.239 756.57C266.131 699.305 127.935 583.955 0 511.74V514.554" fill="white" fill-opacity="0.64"/>
        <path d="M639.832 0.211967C639.896 0.140401 639.964 0.0725786 640.028 0.00101198H638.487C636.122 2.51338 633.738 5.17648 632.095 9.02224C627.41 20.0096 628.743 31.4677 630.027 42.5492C630.747 48.7228 631.485 55.1073 631.187 61.3562C630.717 71.1722 628.717 81.3609 626.78 91.2183C625.187 99.3542 623.534 107.765 622.743 115.958C617.914 165.772 622.276 210.825 635.707 249.863C638.495 257.961 649.414 270.421 660.97 283.612C675.747 300.483 691.028 317.926 691.639 328.518C691.774 330.88 691.168 332.74 689.782 334.206C685.789 338.439 675.08 339.215 657.965 336.503C645.516 334.53 633.557 329.332 621.986 324.303C615.232 321.369 608.249 318.333 601.276 315.994C599.306 315.335 597.265 314.657 595.167 313.967C570.122 305.7 535.823 294.381 530.908 274.549C528.565 265.095 533.16 254.288 544.566 242.431C562.548 223.737 581.14 204.414 593.724 175.072C605.785 146.954 619.665 92.2164 614.35 62.5916C613.262 56.5198 610.731 52.4255 608.279 48.463C604.998 43.1595 601.898 38.1536 603.318 29.0722C604.361 22.3826 606.964 18.4652 609.262 15.0037C612.011 10.8566 614.418 7.10117 613.752 0.00101198H612.625C613.296 6.75087 611.062 10.2501 608.32 14.3783C605.958 17.9341 603.284 21.9645 602.199 28.8989C600.715 38.3909 603.921 43.5701 607.314 49.0581C609.714 52.9302 612.188 56.9342 613.239 62.7914C618.513 92.1977 604.693 146.637 592.685 174.627C580.183 203.778 561.662 223.029 543.752 241.648C532.056 253.803 527.367 264.967 529.812 274.824C534.878 295.258 569.52 306.69 594.813 315.041C596.911 315.734 598.952 316.408 600.915 317.064C607.842 319.388 614.806 322.416 621.537 325.339C633.169 330.398 645.196 335.626 657.788 337.618C664.519 338.688 670.334 339.23 675.073 339.23C682.825 339.23 687.906 337.841 690.607 334.978C692.192 333.302 692.919 331.106 692.765 328.45C692.132 317.474 676.723 299.884 661.822 282.87C650.337 269.762 639.493 257.385 636.777 249.493C623.398 210.61 619.055 165.719 623.865 116.067C624.652 107.927 626.298 99.5426 627.892 91.4368C629.831 81.5417 631.839 71.3077 632.317 61.4127C632.619 55.0696 631.873 48.6362 631.154 42.4212C629.824 30.9819 628.566 20.1791 633.139 9.46291C634.819 5.51922 637.369 2.82226 639.832 0.211967" fill="white" fill-opacity="0.64"/>
        <path d="M516.27 21.1817C540.106 95.4114 564.755 172.165 471.665 225.971C457.751 234.013 442.146 239.912 425.29 243.498C411.692 246.394 396.935 247.86 381.427 247.86C255.578 247.86 98.1585 154.273 0 94.6241V97.709C98.4851 157.535 255.44 250.5 381.427 250.5C397.119 250.5 412.062 249.012 425.836 246.078C442.967 242.432 458.829 236.435 472.984 228.254C567.915 173.381 542.934 95.5996 518.779 20.3756C516.583 13.5316 514.406 6.73656 512.33 0.00176472H509.569C511.72 7.00023 513.984 14.0665 516.27 21.1817" fill="white" fill-opacity="0.64"/>
        <path d="M35.1948 784.153C33.3379 772.009 24.9586 761.158 9.57851 750.973C6.4254 748.886 3.25316 746.777 0 744.584V745.94C3.0148 747.963 6.00165 749.959 8.95317 751.914C24.0522 761.911 32.2727 772.514 34.0766 784.323C37.0634 803.857 22.2248 824.004 4.00649 846.424C2.7735 847.938 1.41544 849.802 0 851.802V853.769C1.75238 851.245 3.40324 848.955 4.88194 847.136C23.2753 824.502 38.2524 804.139 35.1948 784.153" fill="white" fill-opacity="0.64"/>
        <path d="M256.844 3.73767C263.909 7.31223 273.586 12.209 282.127 12.209C285.707 12.209 288.812 11.3276 291.358 9.5874C291.573 9.4405 291.781 9.28599 291.981 9.12779C294.776 6.89416 296.564 3.68497 297.687 0.00116953H295.712C294.685 3.10867 293.137 5.79423 290.805 7.65496C290.64 7.79056 290.467 7.91496 290.294 8.03549C288.068 9.55722 285.321 10.3257 282.127 10.3257C274.036 10.3257 264.59 5.54577 257.693 2.05407C256.655 1.53051 255.68 1.03703 254.782 0.596332C254.779 0.596332 254.287 0.355236 253.567 0.00116953H249.291L253.948 2.28379C254.844 2.72449 255.813 3.21787 256.844 3.73767Z" fill="white" fill-opacity="0.64"/>
        <path d="M68.5149 796.903C78.3071 769.395 68.4561 758.34 24.1228 728.979C20.6034 726.647 17.0662 724.304 13.4452 721.856C8.79723 718.711 4.3714 715.705 0 712.706V714.078C4.17275 716.933 8.40143 719.807 12.8523 722.82C16.4365 725.242 19.9766 727.589 23.4975 729.92C67.2436 758.89 76.9812 769.749 67.4527 796.522C58.8232 820.768 42.135 841.304 24.4657 863.057C16.2452 873.17 7.85997 883.506 0 894.542V896.497C8.1042 884.994 16.8131 874.262 25.3455 863.761C43.0752 841.941 59.8206 821.329 68.5149 796.903" fill="white" fill-opacity="0.64"/>
        <path d="M367.837 949.813C366.482 956.378 362.553 964.454 357.058 971.972C351.328 979.795 339.588 992.975 325.316 993.284L325.177 994.229V993.288C324.945 993.288 324.718 993.273 324.491 993.246C323.139 993.088 322.908 992.504 322.83 992.312C322.418 991.272 322.477 987.645 331.905 976.458L332.194 976.119C334.498 973.343 336.753 970.526 339.007 967.712C342.472 963.388 346.056 958.909 349.769 954.679C350.444 953.911 351.231 952.92 352.107 951.824C355.613 947.425 360.914 940.784 365.536 940.784H365.54C366.305 940.814 366.863 941.085 367.294 941.635C368.596 943.3 368.401 947.078 367.837 949.813V949.813ZM365.614 938.901L365.365 938.897C360.009 938.897 354.591 945.688 350.636 950.653C349.779 951.722 349.011 952.687 348.353 953.436C344.613 957.7 341.016 962.19 337.537 966.537C335.291 969.343 333.043 972.149 330.746 974.91L330.465 975.245C322.948 984.165 319.878 989.973 321.079 993.005C321.41 993.841 322.232 994.881 324.272 995.118C324.568 995.152 324.872 995.171 325.177 995.171L325.359 995.167C340.439 994.839 352.644 981.189 358.576 973.083C364.226 965.358 368.276 957.015 369.679 950.197C370.009 948.607 370.913 943.206 368.779 940.475C368.012 939.496 366.917 938.95 365.614 938.901" fill="white" fill-opacity="0.64"/>
        <path d="M638.207 1257.28C623.743 1250.69 606.744 1247.49 586.242 1247.49C543.547 1247.49 493.668 1261.84 449.666 1274.5C413.887 1284.8 380.092 1294.52 356.682 1294.52C342.904 1294.52 333.56 1291.21 328.112 1284.39C321.512 1276.13 320.446 1262.66 324.85 1243.21C334.371 1201.16 388.789 1150.65 436.803 1106.08C465.987 1078.99 493.555 1053.4 508.016 1032.61C554.338 965.984 569.574 847.345 518.427 776.924C505.507 759.134 483.596 741.449 460.398 722.729C411.005 682.87 355.027 637.696 377.542 580.413C388.115 553.508 414.045 541.251 441.493 528.271C458.657 520.158 476.402 511.765 490.444 499.418C502.61 488.721 512.385 478.261 521.839 468.147C546.131 442.158 565.318 421.633 605.38 421.633C611.693 421.633 618.548 422.149 625.75 423.17C726.358 437.427 844.036 459.27 967.522 538.486C1103.44 625.677 1229.81 717.177 1282.6 876.989C1305.37 945.941 1295.38 1027.24 1257.75 1079.31C1232.25 1114.6 1196.7 1133.25 1154.97 1133.26C1140.23 1133.26 1124.63 1130.91 1108.59 1126.27C1058.67 1111.83 1027.08 1082.17 1012.04 1035.59C998.575 993.891 999.23 942.589 999.866 892.974C1000.88 813.415 1001.93 731.143 945.687 683.522C918.815 660.763 918.096 660.413 902.57 664.24C895.854 665.897 886.652 668.161 871.099 669.626C859.453 670.722 851.185 671.005 844.544 671.231C821.824 672.007 821.824 672.007 788.986 701.756L788.545 702.155C779.306 710.525 765.979 716.721 751.869 723.279C730.931 733.012 709.28 743.072 701.513 761.043C691.109 785.112 700.515 854.053 706.7 883.671C714.018 918.738 736.437 951.022 756.212 979.514L760.382 985.525C767.32 995.56 774.665 1005.76 781.769 1015.63C823.398 1073.47 866.448 1133.28 865.389 1207.83C864.704 1256.07 811.966 1313 762.789 1318.6C759.663 1318.95 756.54 1319.14 753.504 1319.14C724.621 1319.14 703.999 1303.1 682.167 1286.13C668.69 1275.65 654.757 1264.81 638.207 1257.28V1257.28ZM763.004 1320.47C812.98 1314.78 866.576 1256.9 867.272 1207.86C868.338 1132.68 825.108 1072.62 783.298 1014.53C776.198 1004.67 768.861 994.475 761.93 984.448L757.76 978.44C738.087 950.1 715.785 917.981 708.541 883.287C702.398 853.861 693.015 785.447 703.242 761.793C710.722 744.477 732.045 734.571 752.664 724.985C766.906 718.363 780.36 712.114 789.811 703.549L790.252 703.15C822.577 673.864 822.577 673.864 844.608 673.114C851.275 672.888 859.573 672.602 871.276 671.502C886.968 670.022 896.246 667.739 903.022 666.071C907.331 665.008 910.442 664.244 913.207 664.244C920.006 664.244 925.678 669.046 944.474 684.96C1000.04 732.01 998.996 813.829 997.983 892.952C996.71 992.524 995.395 1095.49 1108.07 1128.08C1124.28 1132.76 1140.05 1135.14 1154.97 1135.14C1197.33 1135.14 1233.4 1116.21 1259.28 1080.41C1297.25 1027.88 1307.34 945.896 1284.38 876.401C1231.4 716.001 1104.75 624.283 968.539 536.904C844.733 457.48 726.821 435.592 626.018 421.305C618.725 420.273 611.783 419.75 605.38 419.75C564.501 419.75 545.068 440.538 520.464 466.859C511.04 476.943 501.296 487.369 489.201 498.002C475.359 510.176 457.734 518.512 440.69 526.568C412.892 539.71 386.639 552.125 375.788 579.727C352.768 638.295 409.318 683.932 459.215 724.198C482.312 742.835 504.128 760.441 516.905 778.031C567.582 847.805 552.421 965.437 506.468 1031.53C492.124 1052.16 464.631 1077.68 435.522 1104.7C387.309 1149.45 332.662 1200.18 323.013 1242.79C318.474 1262.84 319.66 1276.83 326.64 1285.57C332.47 1292.86 342.295 1296.41 356.682 1296.41C380.356 1296.4 414.275 1286.64 450.186 1276.32C494.071 1263.69 543.81 1249.38 586.242 1249.38C606.469 1249.38 623.212 1252.52 637.427 1258.99C653.774 1266.44 667.62 1277.2 681.015 1287.62C703.106 1304.79 723.973 1321.02 753.504 1321.02C756.612 1321.02 759.806 1320.83 763.004 1320.47" fill="white" fill-opacity="0.64"/>
        <path d="M1241.86 19.8528C1247.75 39.7294 1289.8 50.7243 1316.63 50.7243C1354.9 50.7243 1395.02 43.1797 1437.5 35.1944C1480.4 27.1299 1524.75 18.7904 1567.9 18.7904C1615.2 18.7904 1654.92 28.919 1689.33 49.7486C1691.16 50.8523 1693.11 52.0426 1695 53.1914V50.9879C1693.44 50.0424 1691.82 49.0519 1690.31 48.1366C1655.59 27.1224 1615.56 16.9071 1567.9 16.9071C1524.58 16.9071 1480.13 25.2654 1437.16 33.3449C1394.77 41.3151 1354.73 48.841 1316.63 48.841C1289.81 48.841 1249.08 37.6087 1243.67 19.3141C1241.85 13.1895 1244.05 6.72962 1250.19 0.00236327H1247.72C1241.96 6.81626 1239.97 13.4532 1241.86 19.8528" fill="white" fill-opacity="0.64"/>
        <path d="M1559.58 150.423C1554.63 150.423 1549.81 150.381 1545.08 150.344C1540.52 150.306 1536.05 150.272 1531.64 150.272C1505.96 150.272 1485.52 151.647 1462.97 158.491C1451.18 162.069 1440.14 167.693 1429.47 173.128C1411.63 182.206 1394.8 190.783 1374.64 190.783C1371.3 190.783 1367.91 190.538 1364.57 190.056C1349.7 187.905 1338.57 179.14 1327.8 170.665C1315.71 161.135 1304.27 152.141 1288.24 152.141C1286.78 152.141 1285.29 152.216 1283.8 152.37C1273.91 153.38 1258.07 162.284 1242.75 170.891C1232.9 176.428 1223.6 181.656 1217 184.089C1207.4 187.622 1200.21 189.336 1194.96 190.587C1179.13 194.353 1177.13 195.747 1169.44 224.897C1167.31 232.958 1165.77 240.491 1164.28 247.776C1158.74 274.809 1154.36 296.163 1125.54 316.563C1106.09 330.296 1081.42 336.971 1050.1 336.971C1019.07 336.974 986.634 330.477 958.012 324.744C943.047 321.746 928.91 318.917 918.409 317.798C912.307 317.147 902.905 316.755 893.255 316.755C865.612 316.755 833.222 326.88 830.958 341.404C829.885 348.282 835.256 358.61 866.953 368.742L870.489 369.872C991.286 408.62 1075.54 459.18 1161.28 544.393C1184.93 567.901 1203 578.851 1218.13 578.851C1221.69 578.851 1225.16 578.225 1228.46 576.997C1244.55 570.993 1256.27 550.695 1269.85 527.191C1276.87 515.055 1284.81 501.303 1294.21 488.063C1339.7 423.947 1404.98 377.101 1478.03 356.147C1499.59 349.966 1520.63 346.832 1540.57 346.832C1605.62 346.832 1651.53 378.683 1695 411.46V409.106C1651.62 376.445 1605.67 344.948 1540.57 344.948C1520.45 344.948 1499.24 348.109 1477.51 354.339C1404.06 375.406 1338.41 422.512 1292.67 486.974C1283.23 500.282 1275.26 514.079 1268.22 526.249C1254.82 549.437 1243.25 569.464 1227.8 575.231C1224.71 576.383 1221.46 576.967 1218.13 576.967C1203.53 576.967 1185.88 566.191 1162.61 543.06C1076.64 457.617 992.168 406.925 871.062 368.079L867.521 366.949C843.788 359.36 831.463 350.391 832.819 341.694C834.702 329.629 863.51 318.638 893.255 318.638C902.841 318.638 912.171 319.022 918.209 319.67C928.624 320.778 942.719 323.603 957.642 326.59C986.348 332.338 1018.88 338.858 1050.1 338.854C1081.82 338.854 1106.85 332.066 1126.63 318.103C1156.06 297.27 1160.5 275.593 1166.12 248.153C1167.61 240.894 1169.15 233.387 1171.26 225.379C1178.92 196.339 1180.48 195.969 1195.39 192.417C1200.69 191.159 1207.94 189.43 1217.65 185.856C1224.39 183.374 1233.76 178.108 1243.68 172.533C1258.12 164.416 1274.49 155.214 1283.99 154.242C1285.42 154.095 1286.85 154.024 1288.24 154.024C1303.62 154.024 1314.8 162.823 1326.64 172.145C1337.6 180.775 1348.93 189.698 1364.3 191.92C1367.73 192.417 1371.21 192.666 1374.64 192.666C1395.25 192.666 1413.08 183.588 1430.32 174.808C1440.93 169.407 1451.89 163.821 1463.52 160.292C1485.84 153.515 1506.13 152.156 1531.64 152.156C1536.04 152.156 1540.51 152.189 1545.06 152.227C1549.8 152.265 1554.62 152.306 1559.58 152.306C1582.58 152.306 1603.17 154.992 1622.53 160.514C1646.98 167.497 1670.96 177.257 1695 188.624V186.541C1671.15 175.298 1647.33 165.644 1623.04 158.706C1603.52 153.131 1582.76 150.423 1559.58 150.423" fill="white" fill-opacity="0.64"/>
        <path d="M1200.78 58.4337C1233.29 78.8453 1271.18 88.7668 1316.63 88.7668C1358.44 88.7668 1402.21 80.5404 1444.53 72.5852C1485.72 64.841 1528.31 56.8329 1567.9 56.8329C1608.06 56.8329 1641.33 65.1611 1669.63 82.2919C1674.57 85.2826 1679.76 88.439 1685.17 91.7273C1688.37 93.6785 1691.65 95.6748 1695 97.7051V94.6239C1692.13 92.8799 1689.3 91.1586 1686.54 89.4749C1681.12 86.1828 1675.94 83.0301 1671 80.0356C1642.28 62.6487 1608.55 54.1962 1567.9 54.1962C1528.07 54.1962 1485.35 62.2268 1444.04 69.9936C1401.84 77.9262 1358.19 86.1301 1316.63 86.1301C1271.69 86.1301 1234.26 76.3368 1202.19 56.2002C1180.65 42.6741 1170.25 28.4512 1171.28 13.9345C1171.61 9.30528 1173.12 4.64206 1175.75 0.00152995H1172.8C1170.41 4.56673 1168.97 9.16582 1168.65 13.7499C1167.55 29.3137 1178.36 44.3464 1200.78 58.4337" fill="white" fill-opacity="0.64"/>
        <path d="M1559.58 188.467C1527.9 188.467 1494.21 194.211 1458.49 200.302C1418.29 207.161 1376.73 214.25 1332.45 214.25C1329.26 214.25 1326.1 214.216 1323.06 214.14C1307.69 213.779 1294.65 211.244 1283.15 209.003C1273.21 207.067 1264.63 205.398 1256.39 205.398C1236.81 205.398 1222.42 215.703 1206.72 240.966C1199.14 253.148 1193.62 267.702 1188.27 281.774C1178.82 306.676 1169.04 332.425 1147.44 347.68C1140 352.931 1125.77 356.995 1110.7 361.296C1084.38 368.811 1054.53 377.327 1050.48 395.11C1045.42 417.397 1091.21 447.892 1115.81 464.277C1120.38 467.328 1124.34 469.961 1126.93 471.863C1155.78 493.02 1179.63 507.111 1202.3 507.111C1205.41 507.111 1208.5 506.84 1211.49 506.301C1229.57 503.055 1246 490.267 1263.18 466.051C1313.65 394.921 1386.23 342.904 1467.55 319.58C1492.52 312.42 1517.09 308.789 1540.57 308.789C1605.56 308.789 1653.64 335.035 1695 364.272V362.886C1653.65 333.732 1605.55 307.659 1540.57 307.659C1516.98 307.659 1492.3 311.305 1467.24 318.496C1385.67 341.887 1312.88 394.059 1262.26 465.399C1245.26 489.355 1229.07 501.996 1211.29 505.19C1208.37 505.714 1205.34 505.981 1202.3 505.981C1179.94 505.981 1156.27 491.977 1127.6 470.951C1124.99 469.034 1121.02 466.394 1116.43 463.335C1092.06 447.105 1046.7 416.888 1051.58 395.358C1055.49 378.231 1084.99 369.813 1111.01 362.381C1126.17 358.053 1140.5 353.966 1148.1 348.603C1169.98 333.148 1179.82 307.237 1189.33 282.177C1194.66 268.154 1200.16 253.653 1207.67 241.565C1223.15 216.679 1237.26 206.528 1256.39 206.528C1264.52 206.528 1273.05 208.189 1282.94 210.114C1294.48 212.362 1307.57 214.905 1323.03 215.27C1326.08 215.342 1329.25 215.38 1332.45 215.38C1376.82 215.38 1418.44 208.279 1458.73 201.405C1494.35 195.33 1528 189.593 1559.58 189.593C1579.08 189.593 1596.32 191.812 1612.29 196.373C1639.65 204.189 1667.06 216.118 1695 230.1V228.834C1667.18 214.935 1639.88 203.078 1612.6 195.288C1596.52 190.697 1579.18 188.467 1559.58 188.467" fill="white" fill-opacity="0.64"/>
        <path d="M740.683 1488.04C736.75 1480.49 733.033 1473.37 735.718 1467.58C739.745 1458.92 747.312 1457.61 754.627 1456.34C760.488 1455.32 766.548 1454.27 770.157 1449.27C776.014 1441.15 778.839 1431.42 781.574 1422.02C785.344 1409.04 788.907 1396.78 799.91 1389.8C814.845 1380.33 827.67 1378.75 840.074 1377.23C857.084 1375.13 873.149 1373.16 891.398 1350.83C914.989 1321.97 932.331 1276.45 937.788 1229.06C948.802 1133.36 892.298 1061.94 842.447 998.924C798.848 943.814 761.196 896.222 776.892 844.487C793.604 789.392 839.825 760.566 876.844 760.566C896.171 760.566 912.849 767.772 925.076 781.415C942.557 800.915 949.514 832.121 945.186 871.656C933.796 975.612 937.679 1103.98 1069.89 1174.5C1112.72 1197.33 1156.94 1208.44 1205.1 1208.43C1266.82 1208.43 1324.05 1189.99 1374.54 1173.72C1415.27 1160.59 1450.44 1149.25 1481.08 1149.25C1521.34 1149.25 1547.51 1169.24 1565.97 1214.05C1611.95 1325.73 1567.71 1418.71 1537.25 1464.2C1488.18 1537.47 1414.88 1581.25 1372.36 1581.25C1359.35 1581.25 1349.27 1577.49 1342.41 1570.06C1276.89 1499.19 1193.06 1463.26 1093.23 1463.26C1062.78 1463.26 1030.27 1466.6 996.612 1473.19C981.953 1476.07 966.046 1478.56 949.201 1481.19C906.348 1487.9 857.781 1495.5 822.389 1511.55C814.694 1515.04 802.915 1526.53 789.269 1539.84C769.238 1559.38 746.532 1581.52 732.863 1581.52C731.65 1581.52 730.52 1581.34 729.507 1580.98C723.465 1578.81 719.815 1575.59 718.343 1571.16C714.583 1559.81 726.113 1542.41 735.375 1528.43C740.931 1520.05 745.73 1512.81 746.638 1507.97C747.809 1501.72 744.186 1494.76 740.683 1488.04V1488.04ZM733.564 1527.23C724.042 1541.6 712.188 1559.49 716.282 1571.84C717.951 1576.88 722.154 1580.64 728.773 1583.02C730.023 1583.47 731.402 1583.7 732.863 1583.7C747.418 1583.7 770.458 1561.22 790.787 1541.4C803.722 1528.78 815.941 1516.86 823.286 1513.53C858.406 1497.6 906.823 1490.02 949.54 1483.34C966.4 1480.7 982.329 1478.21 997.031 1475.33C1030.55 1468.76 1062.92 1465.43 1093.23 1465.43C1192.43 1465.43 1275.73 1501.13 1340.81 1571.53C1348.11 1579.42 1358.72 1583.42 1372.36 1583.42C1414.85 1583.42 1487.72 1542.06 1539.05 1465.41C1569.76 1419.56 1614.34 1325.83 1567.97 1213.23C1549.39 1168.1 1521.78 1147.08 1481.08 1147.08C1450.1 1147.08 1414.77 1158.47 1373.87 1171.65C1323.54 1187.88 1266.48 1206.26 1205.1 1206.26C1157.31 1206.26 1113.42 1195.24 1070.92 1172.58C939.853 1102.68 936.029 975.172 947.341 871.894C951.74 831.73 944.599 799.939 926.688 779.961C914.043 765.851 896.807 758.393 876.844 758.393C839.023 758.393 791.834 787.75 774.812 843.858C758.789 896.678 796.768 944.684 840.744 1000.27C890.332 1062.95 946.538 1134 935.63 1228.81C930.221 1275.8 913.057 1320.91 889.715 1349.46C872.019 1371.11 856.372 1373.03 839.81 1375.07C827.165 1376.63 814.091 1378.23 798.75 1387.96C787.05 1395.38 783.378 1408.03 779.487 1421.41C776.805 1430.64 774.033 1440.18 768.394 1447.99C765.305 1452.28 759.938 1453.21 754.258 1454.2C746.755 1455.5 738.257 1456.98 733.752 1466.67C730.614 1473.42 734.75 1481.36 738.754 1489.04C742.091 1495.44 745.538 1502.06 744.506 1507.57C743.677 1511.97 738.991 1519.04 733.564 1527.23" fill="white" fill-opacity="0.64"/>
        <path d="M1643.94 1270.16C1648.78 1273.25 1656.64 1274.96 1666.07 1274.96C1674.47 1274.96 1684.41 1273.55 1695 1270.33V1267.58C1684.41 1270.88 1674.45 1272.32 1666.07 1272.32C1657.26 1272.32 1649.72 1270.72 1645.36 1267.94C1623.23 1253.8 1613.45 1228.85 1603.1 1202.44C1594.15 1179.64 1584.92 1156.08 1566.98 1139.46L1566.93 1138.68L1566.15 1138.7C1545.53 1120.51 1517.73 1111.66 1481.2 1111.66C1445.58 1111.66 1408.1 1120.21 1377.98 1127.09C1357.41 1131.78 1339.64 1135.84 1328.2 1135.84C1321.48 1135.84 1317.4 1134.46 1315.71 1131.61C1313.47 1127.83 1315.16 1120.74 1320.74 1110.54C1346.77 1063.02 1399.33 949.716 1395.69 902.829C1392.82 865.829 1375.04 827.62 1357.85 790.669C1332.95 737.159 1307.21 681.831 1325.95 628.977C1347.34 568.673 1441.54 460.882 1508.57 451.741C1512.48 451.209 1516.7 450.938 1521.11 450.938C1564.72 450.938 1628.51 476.924 1695 514.553V511.736C1628.49 474.194 1564.75 448.301 1521.11 448.301C1516.58 448.301 1512.24 448.58 1508.22 449.13C1440.34 458.389 1345.05 567.223 1323.46 628.096C1304.36 681.966 1330.34 737.792 1355.46 791.784C1372.55 828.52 1390.23 866.51 1393.07 903.032C1396.31 944.834 1350.45 1050.82 1318.43 1109.28C1312.2 1120.66 1310.61 1128.18 1313.45 1132.96C1315.65 1136.67 1320.47 1138.47 1328.2 1138.47C1339.93 1138.47 1357.84 1134.39 1378.57 1129.66C1408.56 1122.82 1445.88 1114.3 1481.2 1114.3C1517.29 1114.3 1544.64 1123.04 1564.8 1141.02L1564.8 1141.03C1582.54 1157.25 1591.75 1180.71 1600.64 1203.4C1611.16 1230.23 1621.09 1255.57 1643.94 1270.16" fill="white" fill-opacity="0.64"/>
        <path d="M803.309 1466.43C818.767 1456.83 839.936 1443.68 861.059 1424.85C893.08 1396.3 919.409 1360.36 939.316 1318.01C951.84 1291.38 959.964 1262.43 963.467 1232C975.694 1125.69 913.051 1046.51 862.705 982.879C823.615 933.464 789.851 890.788 801.621 851.991C814.68 808.938 849.349 786.413 876.842 786.413C888.786 786.413 898.538 790.534 905.826 798.666C918.09 812.347 922.946 837.271 919.488 868.843C908.169 972.159 910.192 1118.61 1057.73 1197.3C1104.39 1222.19 1152.6 1234.28 1205.1 1234.28C1270.89 1234.28 1330.17 1215.17 1382.52 1198.3C1421.15 1185.85 1454.51 1175.1 1481.07 1175.1C1502.32 1175.1 1524.41 1181.01 1542.06 1223.9C1583.48 1324.47 1543.36 1408.61 1515.77 1449.82C1481.06 1501.64 1422.6 1543.81 1385.43 1543.81C1375.5 1543.81 1367.42 1540.89 1361.41 1535.14C1318.89 1494.44 1279.33 1468.57 1236.9 1453.71C1200.38 1440.94 1160.11 1435.49 1102.26 1435.49C1039.85 1435.49 974.884 1445.59 919.322 1463.94C853.164 1485.79 810.789 1487.49 799.376 1487.49C793.99 1487.49 789.753 1487.16 787.436 1486.56C783.967 1485.67 782.106 1484.57 781.911 1483.29C781.413 1480.03 790.6 1474.33 803.309 1466.43V1466.43ZM787.154 1487.66C789.561 1488.28 793.9 1488.62 799.376 1488.62C810.831 1488.62 853.36 1486.91 919.676 1465.01C975.133 1446.7 1039.97 1436.62 1102.26 1436.62C1204.78 1436.62 1272.9 1451.98 1360.63 1535.95C1366.86 1541.91 1375.21 1544.94 1385.43 1544.94C1423.57 1544.94 1481.23 1503.43 1516.71 1450.45C1544.43 1409.06 1584.72 1324.52 1543.11 1223.47C1525.2 1179.97 1502.71 1173.97 1481.07 1173.97C1454.33 1173.97 1420.89 1184.75 1382.12 1197.24C1329.9 1214.07 1270.72 1233.15 1205.1 1233.15C1152.79 1233.15 1104.76 1221.1 1058.26 1196.3C911.326 1117.94 909.329 971.955 920.614 868.967C924.106 837.067 919.149 811.835 906.666 797.913C899.155 789.532 889.121 785.283 876.842 785.283C848.931 785.283 813.758 808.083 800.54 851.663C788.6 891.029 822.53 933.916 861.832 983.591C912.037 1047.05 974.519 1126.03 962.341 1231.87C958.853 1262.18 950.763 1291 938.291 1317.54C918.448 1359.74 892.21 1395.57 860.306 1424.01C839.258 1442.77 818.135 1455.9 802.71 1465.48C788.664 1474.19 780.185 1479.46 780.796 1483.46C781.07 1485.27 783.093 1486.61 787.154 1487.66" fill="white" fill-opacity="0.64"/>
        <path d="M892.519 869.755C890.266 890.298 890.82 905.218 891.219 916.115C891.875 933.788 892.123 940.402 880.315 944.512C877.569 945.469 874.71 945.514 871.817 944.648C862.133 941.736 848.822 925.728 838.701 904.807C827.962 882.614 824.308 862.399 828.934 850.73C835.981 832.958 857.391 813.157 876.842 813.157C882.168 813.157 884.349 814.773 885.912 816.517C891.423 822.664 895.461 842.925 892.519 869.755V869.755ZM876.842 811.274C856.637 811.274 834.456 831.704 827.182 850.033C822.368 862.184 826.037 882.968 837.006 905.629C847.341 926.993 861.112 943.397 871.271 946.452C872.823 946.919 874.382 947.152 875.908 947.152C877.603 947.152 879.294 946.862 880.933 946.29C894.052 941.725 893.754 933.675 893.103 916.043C892.703 905.207 892.15 890.366 894.387 869.962C897.393 842.582 893.103 821.719 887.317 815.259C885.46 813.191 882.906 811.274 876.842 811.274" fill="white" fill-opacity="0.64"/>
        <path d="M700.14 0.00153219H697.371C691.578 20.3001 687.517 42.5385 685.114 66.9615C680.933 109.434 677.25 165.068 685.951 218.694C692.29 257.777 705.017 275.209 727.211 275.209C727.214 275.209 727.214 275.209 727.218 275.209C741.392 275.205 757.86 268.335 776.927 260.387C790.178 254.858 803.877 249.144 818.526 245.004C819.931 244.605 821.324 244.221 822.744 243.84C864.449 232.665 911.453 231.083 961.324 239.158C974.707 241.324 988.267 245.068 1001.38 248.692C1020.51 253.973 1040.28 259.434 1060.35 260.319C1071.24 260.798 1078.99 259.694 1084.47 256.967C1100.49 248.993 1092.71 229.06 1084.46 207.959C1079.58 195.476 1074.54 182.575 1073.71 171.001C1069.31 109.54 1103.65 53.5145 1149.04 0.00153219H1145.57C1100.53 53.4279 1066.66 109.465 1071.08 171.185C1071.94 183.163 1077.05 196.252 1082 208.916C1090.14 229.73 1097.16 247.705 1083.3 254.605C1078.29 257.095 1070.72 258.131 1060.47 257.683C1040.69 256.813 1021.06 251.392 1002.09 246.149C988.903 242.511 975.272 238.744 961.742 236.552C911.502 228.42 864.125 230.017 822.063 241.294C820.628 241.678 819.226 242.062 817.81 242.465C803.007 246.65 789.232 252.394 775.913 257.95C757.103 265.792 740.861 272.569 727.218 272.569C706.569 272.572 694.648 255.826 688.553 218.272C679.901 164.947 683.574 109.536 687.736 67.2177C690.154 42.6666 694.26 20.349 700.14 0.00153219" fill="white" fill-opacity="0.64"/>
        <path d="M550.206 657.732C526.333 644.568 514.314 632.628 513.455 621.222C512.329 606.235 530.04 592.663 550.549 576.945C557.269 571.796 564.215 566.47 571.017 560.726C613.667 524.679 631.894 518.336 654.422 518.336C660.909 518.336 667.696 518.897 675.553 519.541L679.241 519.842C764.669 526.735 826.758 560.639 829.964 566.515C830.612 567.702 830.476 568.301 830.318 568.643C829.504 570.429 824.777 571.457 816.95 573.156C799.315 576.99 766.496 584.12 717.277 611.591C668.495 638.82 637.058 690.035 627.543 728.715C625.227 738.139 622.854 742.72 620.293 742.72C616.613 742.72 611.659 733.834 605.395 722.587C594.363 702.797 577.699 672.886 550.206 657.732V657.732ZM620.289 743.85C620.293 743.85 620.293 743.85 620.293 743.85C623.54 743.85 626.116 739.266 628.64 728.986C638.098 690.544 669.338 639.641 717.827 612.578C766.899 585.19 799.612 578.083 817.187 574.259C825.915 572.365 830.295 571.412 831.346 569.11C831.753 568.225 831.625 567.201 830.955 565.973C827.58 559.788 766.771 525.771 679.335 518.716L675.644 518.415C667.764 517.767 660.958 517.206 654.422 517.206C631.615 517.206 613.208 523.59 570.286 559.859C563.51 565.589 556.568 570.907 549.86 576.049C529.09 591.963 511.157 605.711 512.329 621.305C513.229 633.287 525.094 645.174 549.664 658.719C576.867 673.718 593.44 703.46 604.405 723.141C611.358 735.608 615.946 743.846 620.289 743.85" fill="white" fill-opacity="0.64"/>
        <path d="M510.632 668.179C483.771 649.372 471.093 633.914 470.739 619.529C470.291 601.374 489.263 586.65 513.283 568.005C524.139 559.579 535.367 550.867 546.294 540.704C590.432 499.663 612.554 487.15 640.973 487.15C646.077 487.15 651.731 487.557 658.258 488.389C716.566 495.821 777.311 513.611 843.97 542.772C859.782 549.691 878.476 558.102 897.2 568.02C899.31 569.135 902.538 570.544 906.278 572.175C918.686 577.576 937.432 585.742 939.756 594.104C940.412 596.455 940.276 598.255 939.361 599.46C938.148 601.054 935.722 601.389 933.899 601.389C929.967 601.389 925.191 599.882 922.512 598.394C919.025 596.458 916.478 592.854 914.011 589.369C910.391 584.251 906.651 578.962 899.777 578.378C892.688 577.757 890.308 581.377 887.98 584.846C886.417 587.173 884.936 589.373 882.096 590.496C880.379 591.174 878.804 591.501 877.275 591.501C873.237 591.501 870.175 589.132 866.932 586.624C863.805 584.209 860.577 581.708 856.125 580.921C855.244 580.763 854.321 580.684 853.394 580.684C845.593 580.684 837.375 586.221 829.427 591.577C823.197 595.773 817.313 599.735 811.671 601.223C782.607 608.881 757.8 618.516 735.822 630.671C664.549 670.085 643.241 743.874 633.417 795.952C631.963 803.647 629.997 807.391 627.406 807.391C622.34 807.391 614.226 794.404 602.994 776.433C583.716 745.573 554.577 698.942 510.632 668.179V668.179ZM627.406 808.521C630.675 808.521 632.939 804.593 634.528 796.159C644.31 744.311 665.513 670.846 736.368 631.662C758.263 619.548 782.988 609.951 811.957 602.316C817.784 600.779 824.026 596.575 830.056 592.511C837.864 587.253 845.94 581.814 853.394 581.814C854.257 581.814 855.108 581.885 855.925 582.028C860.106 582.77 863.225 585.185 866.242 587.516C869.64 590.149 872.849 592.631 877.275 592.631C878.951 592.631 880.661 592.277 882.507 591.547C885.678 590.296 887.324 587.844 888.918 585.475C891.174 582.115 893.283 578.962 899.683 579.505C906.03 580.043 909.457 584.891 913.088 590.021C915.627 593.611 918.249 597.321 921.963 599.381C924.682 600.892 929.579 602.519 933.899 602.519C936.924 602.519 939.063 601.72 940.261 600.146C941.402 598.643 941.598 596.511 940.845 593.799C938.378 584.921 919.333 576.627 906.734 571.135C903.012 569.515 899.8 568.118 897.732 567.022C878.97 557.085 860.257 548.667 844.422 541.74C777.665 512.533 716.819 494.713 658.402 487.267C651.829 486.427 646.126 486.02 640.973 486.02C612.215 486.02 589.912 498.604 545.526 539.876C534.633 550.004 523.427 558.701 512.59 567.112C488.318 585.949 469.146 600.831 469.609 619.559C469.97 634.332 482.803 650.077 509.984 669.106C553.741 699.736 582.805 746.251 602.037 777.032C613.887 795.994 621.71 808.521 627.406 808.521" fill="white" fill-opacity="0.64"/>
        <path d="M652.493 1223.99C637.121 1216.99 618.845 1213.59 596.618 1213.59C555.437 1213.59 508.904 1225.72 471.512 1235.48C444.969 1242.4 422.041 1248.38 407.724 1248.38C407.72 1248.38 407.716 1248.38 407.713 1248.38C400.017 1248.38 395.264 1246.66 393.192 1243.12C390.277 1238.15 392.424 1229.36 399.754 1216.25C417.197 1185.06 447.786 1157.05 477.369 1129.95C501.661 1107.71 524.603 1086.7 540.356 1064.38C572.512 1018.83 591.488 966.89 595.236 914.179C599.519 853.912 584.034 796.603 549.211 743.843C536.822 725.074 513.812 709.303 491.559 694.048C450.091 665.624 410.922 638.779 439.91 595.448C454.69 573.356 468.149 565.085 483.728 555.506C493.547 549.468 504.674 542.628 517.473 531.373C528.573 521.61 537.497 512.065 546.126 502.833C568.361 479.046 585.925 460.258 622.638 460.258C628.416 460.258 634.688 460.729 641.28 461.663C730.267 474.274 828.667 495.352 945.144 563.604C1098.48 653.458 1202.17 737.36 1245.28 877.8C1265.33 943.099 1257.89 1015.25 1226.78 1057.35C1208.6 1081.96 1183.23 1094.97 1153.43 1094.97C1136.97 1094.97 1119.02 1091.06 1100.08 1083.34C1064.82 1068.97 1043.25 1036.09 1034.12 982.853C1026.15 936.293 1028.72 880.264 1031 830.834C1031.64 816.909 1032.25 803.759 1032.63 791.017C1034.28 735.891 1019.12 690.236 988.807 658.995C961.197 630.545 921.493 614.88 877.001 614.88C817.899 614.88 758.031 641.405 712.748 687.648C685.097 715.89 668.023 745.026 660.55 776.73C653.875 805.04 655.062 834.793 664.177 867.691C681.123 928.809 722.082 989.625 765.452 1054.02C780.594 1076.5 796.252 1099.75 810.606 1122.77C843.791 1175.98 838.043 1213.47 827.379 1235.55C815.729 1259.67 791.803 1277.13 766.427 1280.01C763.557 1280.34 760.694 1280.51 757.911 1280.51C731.431 1280.51 712.564 1265.83 692.585 1250.3C680.291 1240.74 667.575 1230.85 652.493 1223.99V1223.99ZM766.555 1281.14C792.308 1278.21 816.58 1260.5 828.396 1236.04C839.184 1213.71 845.022 1175.82 811.567 1122.17C797.201 1099.14 781.535 1075.88 766.389 1053.38C723.073 989.075 682.159 928.33 665.27 867.389C646.161 798.46 661.507 741.598 713.558 688.439C758.626 642.41 818.2 616.01 877.001 616.01C921.184 616.01 960.602 631.555 987.997 659.782C1018.1 690.801 1033.14 736.166 1031.5 790.986C1031.12 803.718 1030.51 816.863 1029.87 830.781C1027.6 880.271 1025.01 936.365 1033.01 983.037C1042.2 1036.7 1064 1069.85 1099.65 1084.38C1118.73 1092.16 1136.83 1096.1 1153.43 1096.1C1183.6 1096.1 1209.28 1082.93 1227.7 1058.02C1259 1015.65 1266.51 943.096 1246.36 877.469C1203.14 736.679 1099.28 652.622 945.717 562.632C829.07 494.279 730.538 473.174 641.438 460.548C634.797 459.607 628.473 459.128 622.638 459.128C585.431 459.128 567.724 478.075 545.301 502.061C536.691 511.274 527.786 520.8 516.727 530.522C504 541.716 492.915 548.53 483.136 554.545C467.444 564.192 453.888 572.524 438.972 594.822C409.362 639.081 448.976 666.235 490.918 694.982C513.081 710.173 536.001 725.88 548.269 744.464C625.414 861.344 594.287 986.021 539.433 1063.73C523.752 1085.95 500.851 1106.92 476.609 1129.12C446.957 1156.28 416.301 1184.35 398.77 1215.7C391.226 1229.19 389.079 1238.35 392.217 1243.7C394.51 1247.61 399.58 1249.51 407.713 1249.51C407.716 1249.51 407.72 1249.51 407.724 1249.51C422.188 1249.51 445.176 1243.51 471.795 1236.57C509.126 1226.83 555.584 1214.72 596.618 1214.72C618.371 1214.72 637.016 1218.18 652.026 1225.02C666.987 1231.83 679.647 1241.67 691.889 1251.19C712.025 1266.85 731.043 1281.64 757.911 1281.64C760.736 1281.64 763.643 1281.47 766.555 1281.14" fill="white" fill-opacity="0.64"/>
        <path d="M653.154 1195.35C643.131 1189.91 629.288 1187.26 610.835 1187.26C587.373 1187.26 560.385 1191.59 536.572 1195.41C517.015 1198.55 500.125 1201.25 488.057 1201.25H488.053C480.614 1201.25 475.736 1200.2 473.137 1198.05C473.111 1198.02 473.021 1197.95 473.002 1197.69C472.538 1191.76 503.195 1156.84 535.653 1119.87C576.886 1072.92 623.619 1019.69 625.661 1004.64C626.798 996.243 623.292 989.858 619.902 983.681C616.263 977.063 612.828 970.807 614.7 962.253C616.146 955.638 620.067 951.928 624.222 948C629.646 942.869 635.251 937.57 635.405 925.467C635.465 920.718 631.985 912.664 627.955 903.338C624.214 894.686 619.977 884.882 618.139 876.44C615.984 866.534 617.521 860.18 622.84 857.019C623.951 856.36 625.066 856.029 626.154 856.029C639.172 856.029 649.044 902.073 654.348 926.812C656.129 935.125 657.418 941.129 658.333 943.449C676.273 988.706 712.863 1035.44 749.735 1079.2C779.085 1114.03 811.783 1167.72 807.327 1204.41C805.832 1216.73 800.2 1226.52 790.592 1233.51C782.945 1239.08 773.627 1241.89 762.888 1241.89C733.602 1241.89 698.787 1221.66 670.812 1205.41C664.495 1201.73 658.532 1198.27 653.154 1195.35V1195.35ZM791.255 1234.43C801.127 1227.24 806.913 1217.19 808.449 1204.54C812.947 1167.5 780.094 1113.48 750.597 1078.47C713.789 1034.79 677.264 988.141 659.387 943.027C658.502 940.801 657.154 934.526 655.451 926.575C649.703 899.767 640.083 854.895 626.154 854.895C624.862 854.895 623.551 855.283 622.263 856.051C616.474 859.49 614.764 866.24 617.035 876.681C618.896 885.228 623.156 895.089 626.915 903.786C630.896 912.992 634.332 920.944 634.275 925.452C634.128 937.076 628.7 942.214 623.446 947.178C619.352 951.05 615.114 955.058 613.596 962.008C611.634 970.976 615.333 977.711 618.911 984.227C622.211 990.243 625.627 996.461 624.542 1004.48C622.546 1019.2 575.93 1072.29 534.801 1119.13C500.77 1157.89 471.374 1191.37 471.875 1197.77C471.913 1198.26 472.094 1198.65 472.418 1198.91C475.224 1201.25 480.339 1202.38 488.053 1202.38H488.057C500.216 1202.38 517.147 1199.67 536.752 1196.52C560.52 1192.71 587.463 1188.39 610.835 1188.39C629.096 1188.39 642.761 1190.99 652.611 1196.34C657.979 1199.25 663.938 1202.72 670.243 1206.38C698.335 1222.71 733.301 1243.02 762.888 1243.02C773.868 1243.02 783.412 1240.13 791.255 1234.43" fill="white" fill-opacity="0.64"/>
        <path d="M1099.93 767.58C1100.12 767.369 1100.32 767.282 1100.59 767.282C1101.11 767.282 1102.12 767.602 1103.97 769.128C1114.63 777.93 1201.48 883.295 1175.98 983.236C1172.22 997.979 1164.62 1006.1 1154.6 1006.1H1154.59C1147.34 1006.09 1139.23 1001.69 1131.76 993.704C1114.89 975.688 1098.24 935.66 1102.08 877.352C1104.35 842.853 1101.8 813.582 1100.11 794.21C1098.87 779.987 1097.97 769.712 1099.93 767.58V767.58ZM1100.21 877.227C1096.32 936.138 1113.25 976.686 1130.38 994.988C1138.22 1003.37 1146.82 1007.98 1154.59 1007.98H1154.6C1165.57 1007.98 1173.81 999.358 1177.8 983.7C1203.54 882.855 1115.93 776.556 1105.17 767.674C1102.07 765.116 1099.93 764.785 1098.53 766.307C1096.02 769.049 1096.81 778.043 1098.23 794.372C1099.92 813.687 1102.47 842.871 1100.21 877.227" fill="white" fill-opacity="0.64"/>
        <path d="M1559.58 214.834C1530.13 214.834 1497.49 220.397 1462.93 226.292C1421.65 233.336 1378.97 240.617 1332.45 240.617C1329.02 240.617 1325.64 240.579 1322.43 240.5C1319.66 240.436 1316.92 240.36 1314.24 240.289C1307.2 240.097 1300.56 239.916 1294.16 239.916C1254.09 239.916 1229.27 248.082 1212.92 291.154C1202.58 318.387 1190.86 349.251 1162.74 369.154C1154.78 374.785 1146.83 379.591 1139.8 383.833C1123.53 393.664 1110.68 401.431 1110.2 412.154C1109.76 422.015 1119.73 433.873 1142.53 450.604C1164.4 466.65 1182.39 474.451 1197.54 474.451C1198.9 474.451 1200.27 474.383 1201.61 474.263C1223.61 472.218 1238.36 454.04 1257.04 431.029C1265.53 420.565 1275.16 408.712 1286.44 397.427C1335.36 348.505 1395.47 312.824 1460.28 294.239C1487.61 286.4 1514.62 282.423 1540.57 282.423C1604.67 282.423 1654.1 305.607 1695 332.395V331.043C1654.09 304.334 1604.65 281.293 1540.57 281.293C1514.52 281.293 1487.4 285.282 1459.97 293.154C1394.97 311.792 1334.69 347.571 1285.64 396.628C1274.31 407.954 1264.67 419.834 1256.16 430.317C1237.65 453.12 1223.03 471.137 1201.51 473.137C1200.21 473.257 1198.87 473.317 1197.54 473.317C1182.65 473.317 1164.87 465.588 1143.2 449.693C1120.73 433.206 1110.91 421.646 1111.33 412.207C1111.78 402.086 1124.41 394.459 1140.39 384.801C1147.43 380.548 1155.4 375.731 1163.39 370.077C1191.79 349.974 1203.57 318.937 1213.97 291.553C1230.1 249.095 1254.59 241.046 1294.16 241.046C1300.54 241.046 1307.18 241.227 1314.2 241.415C1316.89 241.49 1319.63 241.562 1322.4 241.63C1325.63 241.709 1329.01 241.747 1332.45 241.747C1379.06 241.747 1421.79 234.458 1463.12 227.407C1497.63 221.523 1530.23 215.96 1559.58 215.96C1576.59 215.96 1591.47 217.847 1605.05 221.727C1634.25 230.066 1664.14 243.739 1695 259.695V258.422C1664.26 242.553 1634.48 228.959 1605.36 220.642C1591.67 216.732 1576.7 214.834 1559.58 214.834" fill="white" fill-opacity="0.64"/>
        <path d="M1068.01 708.24C1068.37 707.837 1068.83 707.649 1069.48 707.649C1071.83 707.649 1076.21 710.244 1082.05 714.139C1120.28 739.624 1221.85 855.818 1193.22 985.191C1187.91 1009.19 1170.09 1024.7 1147.81 1024.7C1132.13 1024.7 1116.45 1017.09 1103.66 1003.29C1079.02 976.69 1067.83 930.744 1072.18 873.913C1077.74 801.13 1071.9 755.297 1068.77 730.678C1067.15 717.984 1066.18 710.323 1068.01 708.24ZM1071.05 873.822C1066.68 930.974 1077.97 977.225 1102.83 1004.06C1115.83 1018.1 1131.81 1025.83 1147.81 1025.83C1147.81 1025.83 1147.81 1025.83 1147.82 1025.83C1170.64 1025.83 1188.89 1009.97 1194.32 985.432C1210.19 913.73 1185.64 849.222 1162.25 807.729C1134.77 758.973 1099.6 724.482 1082.67 713.197C1076.49 709.072 1072.13 706.519 1069.48 706.519C1068.51 706.519 1067.74 706.846 1067.16 707.494C1064.99 709.961 1065.88 716.933 1067.64 730.821C1070.78 755.402 1076.61 801.156 1071.05 873.822" fill="white" fill-opacity="0.64"/>
        <path d="M1037.58 658.701C1037.89 658.328 1038.31 658.155 1038.92 658.155C1041.96 658.155 1048.56 662.441 1059.49 669.537C1155.61 731.928 1247.72 847.535 1217.96 984.864C1208.35 1029.23 1177.21 1059.04 1140.47 1059.03C1121.3 1059.03 1103.35 1050.71 1088.53 1034.97C1059.69 1004.3 1046.19 948.414 1050.51 877.593C1056.96 771.863 1045.31 710.263 1039.71 680.66C1037.35 668.204 1035.93 660.686 1037.58 658.701ZM1049.38 877.529C1045.04 948.659 1058.65 1004.85 1087.71 1035.74C1102.75 1051.72 1120.98 1060.16 1140.47 1060.16H1140.47C1177.76 1060.16 1209.34 1030 1219.06 985.105C1233.42 918.868 1221.08 853.675 1182.39 791.325C1143.2 728.162 1088.95 687.316 1060.1 668.588C1045.41 659.051 1039.12 655.081 1036.71 657.978C1034.72 660.377 1036.02 667.225 1038.6 680.871C1044.19 710.428 1055.82 771.934 1049.38 877.529" fill="white" fill-opacity="0.64"/>
        <path d="M585.38 612.352C593.263 590.457 662.849 560.459 696.21 560.459C697.378 560.459 698.508 560.493 699.589 560.564C706.124 561.009 708.998 561.48 710.188 561.856C708.776 562.836 705.062 564.459 701.449 566.037C685.136 573.175 654.765 586.46 640.049 614.254C630.791 631.747 624.022 638.561 615.905 638.561C609.298 638.561 601.207 634.199 588.856 623.98C584.883 620.692 583.745 616.887 585.38 612.352V612.352ZM615.909 641.197C626.583 641.197 634.211 630.922 642.381 615.486C656.664 588.505 686.485 575.461 702.504 568.455C710.618 564.907 713.653 563.578 713.265 561.355C712.942 559.487 710.855 558.692 699.77 557.935C666.404 555.671 591.531 587.488 582.897 611.456C580.901 617.008 582.378 622.04 587.176 626.01C600.04 636.655 608.631 641.197 615.905 641.197C615.905 641.197 615.905 641.197 615.909 641.197Z" fill="white" fill-opacity="0.64"/>
        <path d="M599.766 665.394C593.239 649.827 580.051 643.254 568.416 637.461C558.171 632.357 549.323 627.95 548.042 618.548C547.553 614.974 549.896 609.915 554.819 603.922C575.136 579.172 631.568 545.731 655.456 544.281C661.513 543.916 667.596 543.727 673.551 543.727C725.712 543.727 760.482 558.161 761.194 564.252C761.311 565.22 759.721 565.743 758.765 565.969C720.416 575.055 673.058 591.553 647.042 638.941C625.421 678.318 609.187 687.851 599.766 665.394ZM648.691 639.845C674.35 593.112 721.23 576.795 759.201 567.8C762.848 566.937 763.187 565.069 763.066 564.033C762.177 556.417 726.624 541.844 673.551 541.844C667.562 541.844 661.434 542.032 655.343 542.405C631.093 543.874 573.908 577.699 553.365 602.728C548.027 609.229 545.609 614.638 546.174 618.804C547.59 629.193 556.853 633.807 567.576 639.148C578.918 644.794 591.773 651.198 598.033 666.125C601.676 674.815 606.459 679.222 612.253 679.222C622.087 679.222 634.348 665.974 648.691 639.845" fill="white" fill-opacity="0.64"/>
        <path d="M1130.55 871.221C1131.52 869.552 1132.56 868.551 1133.34 868.551C1134.02 868.551 1134.69 869.391 1135.02 869.895C1153.65 897.622 1154.05 944.581 1147.15 957.512C1146.22 959.259 1145.2 960.224 1144.3 960.224C1143.12 960.22 1141.59 958.709 1140.09 956.08C1120.95 922.538 1123.7 883.007 1130.55 871.221ZM1144.29 962.856C1144.3 962.856 1144.3 962.856 1144.3 962.856C1146.28 962.856 1148.03 961.478 1149.48 958.751C1156.81 945.002 1156.68 897.399 1137.22 868.426C1134.68 864.667 1131.02 865.153 1128.27 869.895C1120.96 882.487 1117.89 922.493 1137.8 957.391C1139.87 961.018 1142.06 962.856 1144.29 962.856" fill="white" fill-opacity="0.64"/>
        <path d="M1389.29 1078.43C1391.98 1082.3 1398.55 1083.96 1411.24 1083.96C1419.18 1083.95 1428.65 1083.32 1439.61 1082.59C1453.19 1081.69 1468.58 1080.66 1484.49 1080.66C1534.86 1080.66 1568.82 1091.36 1591.47 1114.43C1612.52 1130.62 1624.14 1157.03 1634.38 1180.33C1646.84 1208.64 1657.59 1233.1 1681.34 1233.1C1683.86 1233.1 1686.53 1232.82 1689.26 1232.25C1691.08 1231.88 1693.01 1231.38 1695 1230.78V1228.8C1692.87 1229.47 1690.82 1230.01 1688.88 1230.4C1686.27 1230.94 1683.73 1231.22 1681.34 1231.22C1658.82 1231.22 1648.3 1207.28 1636.11 1179.57C1625.77 1156.07 1614.05 1129.42 1592.72 1113.02C1569.79 1089.66 1535.4 1078.78 1484.49 1078.78C1468.51 1078.78 1453.09 1079.81 1439.49 1080.71C1428.56 1081.44 1419.11 1082.07 1411.24 1082.07C1399.55 1082.07 1393.08 1080.57 1390.84 1077.36C1389.62 1075.6 1389.6 1073.21 1390.78 1070.07C1414.75 1006.01 1434.81 924.917 1432.87 899.94C1429.47 856.213 1410.25 814.893 1391.66 774.94C1368.92 726.078 1347.45 679.929 1361.09 641.441C1380.06 587.947 1466.7 495.088 1513.62 488.688C1515.86 488.383 1518.38 488.229 1521.11 488.229C1557.65 488.229 1622.03 514.388 1695 557.644V555.46C1622.12 512.38 1557.78 486.345 1521.11 486.345C1518.3 486.345 1515.69 486.507 1513.36 486.824C1465.92 493.295 1378.43 586.9 1359.32 640.809C1345.41 680.023 1367.05 726.515 1389.95 775.734C1408.47 815.537 1427.62 856.695 1430.99 900.087C1432.69 921.964 1414.72 1000.69 1389.02 1069.4C1387.61 1073.17 1387.7 1076.13 1389.29 1078.43" fill="white" fill-opacity="0.64"/>
        <path d="M840.037 107.77C845.088 107.77 850.937 107.012 857.921 105.461C864.867 103.92 871.424 102.462 877.376 101.66C887.451 100.304 897.211 99.739 905.893 99.2381C915.784 98.6693 924.674 96.01 933.073 91.102C968.145 70.6039 982.801 28.6697 987.471 11.5916C988.598 7.47841 989.716 3.66654 990.816 0.001577H989.637C988.564 3.57991 987.479 7.29383 986.383 11.294C981.75 28.2365 967.218 69.8393 932.501 90.1265C924.263 94.9403 915.536 97.5507 905.761 98.1119C897.128 98.6129 887.346 99.1778 877.221 100.541C871.228 101.351 864.644 102.813 857.676 104.357C850.775 105.89 845.005 106.636 840.037 106.636C831.709 106.636 825.908 104.5 822.303 100.101C816.97 93.5881 816.205 81.9416 819.908 63.436L820.514 60.4151C825.543 34.945 834.168 15.3281 847.781 0.001577H846.289C832.933 15.3545 824.397 34.9034 819.407 60.1928L818.8 63.2137C815.026 82.0771 815.862 94.0251 821.429 100.813C825.264 105.491 831.351 107.77 840.037 107.77" fill="white" fill-opacity="0.64"/>
        <path d="M1559.58 240.823C1532.34 240.823 1500.76 246.206 1467.3 251.913C1424.95 259.137 1381.17 266.606 1332.45 266.606C1328.89 266.606 1325.34 266.569 1321.82 266.482L1313.53 266.267C1306.69 266.083 1300.23 265.906 1294.16 265.906C1241.39 265.906 1238.78 294.913 1236.01 325.622C1234.49 342.467 1232.92 359.884 1223.64 374.683C1220.33 379.968 1211.43 386.657 1202 393.739C1181.93 408.813 1159.19 425.902 1170.1 441.899C1174.8 448.785 1180.45 452.276 1186.91 452.276C1190.44 452.276 1194.27 451.225 1198.3 449.146C1216.1 439.967 1235.14 412.775 1250.43 390.929C1259.11 378.529 1266.61 367.824 1270.71 365.368C1275 362.803 1279.8 362.457 1283.93 362.457C1285.53 362.457 1287.14 362.513 1288.75 362.57C1290.4 362.63 1292.06 362.686 1293.71 362.686C1299.91 362.686 1306.46 361.944 1312.38 356.562C1319.51 350.064 1320.41 341.657 1321.27 333.525C1322.06 326.21 1322.8 319.306 1327.65 313.49C1342.34 295.941 1393.86 283.677 1427.95 275.563C1437.98 273.172 1446.65 271.107 1453.11 269.254C1482.77 260.749 1512.19 256.433 1540.57 256.433C1603.55 256.433 1653.91 277.074 1695 301.772V299.561C1653.87 274.987 1603.51 254.549 1540.57 254.549C1512.02 254.549 1482.42 258.888 1452.59 267.446C1446.17 269.288 1437.52 271.348 1427.51 273.729C1391.13 282.392 1341.3 294.254 1326.21 312.285C1320.98 318.537 1320.18 326.052 1319.4 333.325C1318.54 341.465 1317.71 349.156 1311.11 355.164C1305.67 360.121 1299.53 360.803 1293.71 360.803C1292.08 360.803 1290.45 360.746 1288.82 360.69C1287.18 360.633 1285.55 360.573 1283.93 360.573C1279.55 360.573 1274.43 360.954 1269.75 363.752C1265.3 366.412 1258.06 376.751 1248.89 389.848C1234.52 410.384 1214.82 438.505 1197.44 447.47C1186.84 452.936 1178.45 450.8 1171.66 440.841C1161.76 426.328 1183.74 409.811 1203.13 395.245C1213.12 387.742 1221.74 381.263 1225.24 375.685C1234.76 360.505 1236.35 342.855 1237.89 325.792C1240.69 294.668 1243.11 267.789 1294.16 267.789C1300.21 267.789 1306.65 267.966 1313.48 268.151L1321.77 268.365C1325.31 268.452 1328.87 268.49 1332.45 268.49C1381.33 268.49 1425.19 261.005 1467.64 253.766C1500.99 248.078 1532.49 242.707 1559.58 242.707C1574.07 242.707 1586.54 244.255 1597.71 247.441C1628.49 256.237 1661 271.853 1695 289.888V287.756C1661.23 269.872 1628.91 254.395 1598.22 245.63C1586.89 242.394 1574.24 240.823 1559.58 240.823" fill="white" fill-opacity="0.64"/>
        <path d="M847.3 68.0162C850.196 73.6361 856.441 76.4912 865.865 76.4912C868.317 76.4912 871.022 76.2916 873.9 75.9036C884.944 74.4158 895.245 73.8206 904.402 73.2895C907.125 73.1351 909.642 72.7247 912.105 72.0279C914.836 71.2557 917.405 70.1558 919.951 68.6642C940.325 56.7615 964.405 21.7014 965.204 0.00165009H963.316C962.48 20.8351 938.532 55.6278 919.002 67.037C916.591 68.4458 914.165 69.4853 911.593 70.2161C909.261 70.8715 906.881 71.2631 904.229 71.4138C895.106 71.9411 884.766 72.5401 873.647 74.0392C860.63 75.7907 852.215 73.4515 848.976 67.1536C844.584 58.6221 849.804 42.1807 862.604 24.2363C869.561 14.4806 878.97 6.57071 891.369 0.00165009H887.43C876.261 6.37484 867.624 13.9572 861.074 23.1403C847.657 41.9435 842.512 58.7163 847.3 68.0162" fill="white" fill-opacity="0.64"/>
        <path d="M620.835 1299.3C617.08 1298.18 612.59 1297.64 607.113 1297.64C583.982 1297.64 548.203 1307.45 506.773 1318.82C454.537 1333.15 395.333 1349.39 347.382 1349.39C314.799 1349.39 291.594 1341.99 276.445 1326.77C262.576 1312.84 255.609 1291.88 255.737 1264.47C255.964 1216.44 320.761 1163.65 377.931 1117.07C412.008 1089.31 444.197 1063.09 460.002 1040.36C492.486 993.63 521.203 943.04 511.432 889.704C505.749 858.682 488.087 840.293 469.389 820.831C459.08 810.096 448.416 798.999 439.399 785.304C430.999 772.553 426.536 761.144 422.599 751.08C414.84 731.244 408.712 715.583 378.676 701.725C369.773 697.619 362.786 694.636 357.174 692.241C335.407 682.941 335.407 682.941 326.832 660.499C325.022 655.757 322.837 650.039 320.005 643.055C309.061 616.06 300.511 610.779 289.444 610.779C287.095 610.779 284.688 611.012 282.139 611.257C279.303 611.529 276.369 611.815 273.177 611.815C266.183 611.815 256.444 610.632 243.112 601.407C232.923 594.36 228.641 587.953 230.385 582.371C237.245 560.392 333.1 552.166 352.161 552.166C352.622 552.166 352.932 552.17 353.085 552.192L353.382 550.976L353.963 552.132C366.487 545.804 373.278 537.691 379.844 529.845C388.579 519.407 396.832 509.546 417.778 502.872C425.229 500.495 431.534 498.672 436.6 497.207C463.965 489.293 464.334 488.893 476.079 454.349L477.563 449.984C479.755 443.554 477.984 439.012 476.421 435.004C474.399 429.813 472.651 425.331 479.649 417.12C483.386 412.747 496.791 407.567 508.622 402.995C516.596 399.914 524.134 397.002 528.153 394.557C534.413 390.749 538.669 385.578 542.782 380.575C548.123 374.086 553.163 367.957 562.264 364.699C568.403 362.499 575.967 361.384 584.739 361.384C607.06 361.384 633.303 368.356 654.389 373.958C659.217 375.242 663.737 376.44 667.832 377.457C736.306 394.414 801.462 425.237 864.474 455.043L870.964 458.116C1020.7 528.899 1133.86 608.041 1216.92 700.053C1272.68 761.83 1308.67 822.002 1326.95 884.005C1348.41 956.83 1333 1045.64 1288.6 1105.01C1265.56 1135.83 1224.66 1172.55 1160.64 1172.55C1144.08 1172.56 1126.81 1169.99 1109.3 1164.93C956.626 1120.77 961.662 970.209 978.363 832.553C983.354 791.409 975.636 757.969 956.03 735.844C939.453 717.134 914.394 706.829 885.466 706.829C832.273 706.829 764.401 743.403 743.383 811.184C719.288 888.902 770.711 955.142 820.434 1019.2C873.446 1087.49 928.259 1158.1 897.647 1245.16C879.985 1295.38 814.231 1361.09 759.072 1367.37C755.998 1367.72 752.932 1367.9 749.949 1367.9C720.682 1367.9 699.924 1351.29 677.949 1333.71C660.909 1320.08 643.284 1305.98 620.835 1299.3V1299.3ZM759.369 1369.99C815.436 1363.61 882.223 1296.96 900.137 1246.04C931.227 1157.62 875.962 1086.43 822.521 1017.59C770.937 951.139 722.215 888.375 745.903 811.964C766.545 745.388 833.215 709.462 885.466 709.462C913.629 709.462 937.984 719.455 954.057 737.595C973.142 759.137 980.646 791.861 975.745 832.236C958.908 970.966 953.902 1122.73 1108.57 1167.45C1126.31 1172.59 1143.84 1175.19 1160.64 1175.19C1225.75 1175.19 1267.32 1137.89 1290.72 1106.59C1335.58 1046.59 1351.16 956.841 1329.48 883.263C1311.09 820.868 1274.91 760.365 1218.88 698.286C1135.58 606.01 1022.15 526.669 872.09 455.732L865.6 452.658C802.471 422.8 737.195 391.917 668.465 374.895C664.385 373.886 659.877 372.688 655.067 371.411C633.834 365.769 607.407 358.748 584.739 358.748C575.662 358.748 567.801 359.915 561.375 362.217C551.589 365.723 546.078 372.421 540.745 378.899C536.771 383.732 532.661 388.727 526.782 392.305C522.962 394.629 515.534 397.499 507.67 400.535C494.957 405.447 481.811 410.524 477.645 415.41C469.622 424.819 471.83 430.484 473.965 435.961C475.498 439.897 476.949 443.614 475.065 449.136L473.581 453.498C462.168 487.07 462.168 487.07 435.866 494.675C430.784 496.144 424.46 497.975 416.976 500.359C395.299 507.263 386.413 517.885 377.821 528.153C371.212 536.052 364.965 543.514 353.204 549.559C352.888 549.529 352.536 549.529 352.161 549.529C338.588 549.529 235.761 556.298 227.867 581.583C225.741 588.397 230.365 595.795 241.611 603.577C255.7 613.325 266.374 614.451 273.177 614.451C276.495 614.451 279.493 614.161 282.394 613.883C284.876 613.642 287.221 613.416 289.444 613.416C297.718 613.416 306.092 615.759 317.562 644.046C320.386 651.007 322.563 656.713 324.369 661.441C333.259 684.707 333.554 685.02 356.138 694.663C361.737 697.054 368.703 700.03 377.573 704.121C406.644 717.53 412.599 732.759 420.14 752.04C424.129 762.225 428.645 773.774 437.195 786.754C446.348 800.649 457.095 811.836 467.487 822.654C485.906 841.826 503.3 859.936 508.841 890.183C518.435 942.566 489.996 992.594 457.837 1038.85C442.243 1061.28 410.196 1087.39 376.265 1115.03C318.644 1161.97 253.335 1215.18 253.101 1264.46C252.968 1292.59 260.194 1314.18 274.577 1328.63C290.246 1344.38 314.06 1352.03 347.382 1352.03C395.69 1352.02 455.076 1335.73 507.47 1321.36C548.715 1310.05 584.336 1300.28 607.113 1300.28C612.258 1300.28 616.624 1300.8 620.082 1301.83C642.041 1308.36 659.458 1322.3 676.303 1335.77C698.651 1353.65 719.759 1370.53 749.949 1370.53C753.03 1370.53 756.201 1370.35 759.369 1369.99" fill="white" fill-opacity="0.64"/>
        <path d="M824.214 137.113C837.032 137.113 851.168 133.972 863.64 131.203C870.032 129.783 876.07 128.446 880.898 127.791C890.002 126.563 898.854 126.054 907.408 125.561C925.225 124.536 942.05 123.568 955.414 115.971C966.18 109.846 974.029 99.763 979.408 85.1333C989.081 58.8345 1001.01 29.2926 1017.94 0.00302356H1016.64C999.838 29.1758 987.977 58.5671 978.346 84.7454C973.061 99.1115 965.377 109.003 954.857 114.988C941.726 122.457 925.025 123.414 907.344 124.435C898.764 124.928 889.897 125.437 880.744 126.672C875.87 127.331 869.813 128.676 863.399 130.1C850.98 132.857 836.908 135.98 824.214 135.98C811.765 135.98 802.94 132.951 797.241 126.721C783.391 111.541 790.333 76.8807 794.062 58.2583L794.646 55.309C798.883 33.8503 805.678 15.5782 815.276 0.00302356H813.946C804.48 15.5593 797.749 33.7561 793.538 55.0905L792.951 58.036C789.184 76.8542 782.174 111.88 796.408 127.482C802.333 133.961 811.43 137.113 824.214 137.113" fill="white" fill-opacity="0.64"/>
        <path d="M1115.81 0.000730209H1113.21C1108.52 4.98026 1104.52 9.54539 1101.48 13.6812C1059.95 70.1548 1041.52 122.282 1045.16 173.041C1046.57 192.794 1044.15 205.864 1037.75 212.998C1033.67 217.544 1027.85 219.755 1019.97 219.755C1009.01 219.755 995.502 215.578 981.204 211.156C968.224 207.141 954.8 202.986 942.132 201.604C932.614 200.564 923.069 200.059 912.956 200.059C881.037 200.059 850.708 205.141 818.601 210.519C813.207 211.423 807.79 212.331 802.344 213.216L801.933 213.284C790.671 215.119 777.902 217.194 765.468 217.194C741.964 217.194 726.924 209.401 719.477 193.359C703.932 159.869 708.279 119.543 712.113 83.971C712.633 79.176 713.145 74.4301 713.605 69.7594C716.163 43.7657 720.652 20.6458 727.282 0.000730209H725.282C718.728 20.6232 714.279 43.6827 711.729 69.5747C711.27 74.2379 710.757 78.9764 710.241 83.7676C706.381 119.585 702.004 160.186 717.771 194.153C725.553 210.926 741.158 219.077 765.468 219.077C778.053 219.077 790.901 216.987 802.235 215.145L802.645 215.077C808.095 214.188 813.516 213.281 818.913 212.377C850.941 207.013 881.191 201.943 912.956 201.943C922.998 201.943 932.478 202.444 941.925 203.476C954.415 204.839 967.753 208.964 980.65 212.953C995.088 217.42 1008.72 221.639 1019.97 221.639C1028.42 221.639 1034.69 219.224 1039.15 214.256C1045.91 206.719 1048.49 193.197 1047.03 172.906C1043.44 122.613 1061.74 70.893 1103 14.7961C1106.24 10.3816 1110.65 5.42849 1115.81 0.000730209" fill="white" fill-opacity="0.64"/>
        <path d="M1103.55 285.526C1090.78 294.544 1073.29 298.928 1050.1 298.928C1022.85 298.932 992.377 292.826 965.487 287.44C949.637 284.268 934.668 281.27 922.442 279.967C916.453 279.33 900.38 277.846 880.571 277.846C843.877 277.846 796.816 282.818 781.003 306.506C774.125 316.804 773.843 329.747 780.163 344.975C783.135 352.125 790.812 356.008 798.236 359.763C804.108 362.735 810.184 365.809 813.551 370.393C817.548 375.828 819.905 383.441 822.184 390.804C825.22 400.609 828.358 410.749 835.488 416.738C844.329 424.166 854.028 427.624 866.021 427.624C874.341 427.624 882.854 425.94 891.08 424.316C899.213 422.708 907.62 421.047 915.741 421.047C923.534 421.047 930.318 422.591 936.484 425.767C951.456 433.484 957.754 443.873 963.848 453.919C971.789 467.019 979.288 479.393 1004.01 485.178C1055.74 497.284 1069.92 509.929 1104.17 540.484C1108.58 544.424 1113.33 548.654 1118.53 553.215C1130.85 564.037 1139.96 576.388 1148.76 588.332C1156.62 598.988 1164.74 610.009 1175.19 620.07C1188.05 632.447 1200.16 637.954 1211.87 643.28C1227.48 650.376 1242.22 657.081 1255.6 680.046L1257.68 683.647C1274.51 712.745 1291.52 739.669 1301.97 739.669C1303.65 739.669 1305.1 739.01 1306.29 737.71C1310.06 733.586 1311.07 722.621 1309.41 704.191C1308.43 693.388 1300.62 683.738 1293.07 674.4C1284.93 664.336 1277.25 654.825 1277.71 644.32C1278.26 631.72 1285.88 625.52 1293.94 618.959C1299.84 614.156 1305.94 609.188 1309.52 601.496C1318.1 583.017 1320.19 566.463 1322.19 550.458C1325 528.178 1327.64 507.134 1347.58 483.325C1383.27 440.728 1433.33 408.549 1488.53 392.714C1506.93 387.441 1523.95 384.876 1540.57 384.876C1596.98 384.876 1637.45 415.559 1680.3 448.043C1685.15 451.723 1690.05 455.421 1695 459.113V455.821C1690.6 452.525 1686.22 449.225 1681.89 445.945C1638.68 413.182 1597.86 382.239 1540.57 382.239C1523.7 382.239 1506.44 384.838 1487.81 390.179C1432.1 406.157 1381.58 438.637 1345.55 481.634C1325.12 506.034 1322.43 527.451 1319.58 550.127C1317.59 565.935 1315.54 582.279 1307.13 600.385C1303.81 607.527 1297.95 612.299 1292.28 616.913C1284.11 623.554 1275.68 630.421 1275.07 644.203C1274.57 655.706 1282.93 666.053 1291.02 676.058C1298.32 685.086 1305.87 694.424 1306.78 704.428C1308.74 726.109 1306.54 733.526 1304.34 735.932C1303.65 736.682 1302.9 737.032 1301.97 737.032C1291.6 737.032 1269.43 698.699 1259.97 682.329L1257.87 678.717C1244.08 655.028 1228.96 648.158 1212.96 640.881C1201.45 635.645 1189.55 630.232 1177.02 618.171C1166.73 608.265 1158.67 597.338 1150.89 586.769C1142 574.712 1132.81 562.244 1120.26 551.234C1115.08 546.68 1110.33 542.45 1105.92 538.514C1071.32 507.646 1056.99 494.87 1004.62 482.609C980.972 477.076 973.747 465.166 966.101 452.551C959.818 442.193 953.328 431.481 937.689 423.424C931.143 420.049 923.963 418.41 915.741 418.41C907.364 418.41 898.825 420.098 890.572 421.729C882.462 423.333 874.085 424.987 866.021 424.987C854.683 424.987 845.523 421.725 837.183 414.719C830.648 409.227 827.627 399.468 824.704 390.025C822.361 382.454 819.936 374.623 815.675 368.83C811.939 363.741 805.577 360.524 799.426 357.409C792.108 353.71 785.196 350.211 782.6 343.962C776.638 329.6 776.837 317.49 783.196 307.968C798.36 285.251 844.521 280.483 880.571 280.483C900.256 280.483 916.215 281.955 922.163 282.588C934.265 283.88 949.181 286.867 964.967 290.027C991.978 295.436 1022.59 301.568 1050.1 301.565C1073.86 301.565 1091.84 297.022 1105.07 287.681C1138.03 264.373 1128.58 229.226 1119.43 195.235C1109.67 158.925 1099.57 121.375 1140.17 96.8765C1145.04 93.9385 1151.55 92.447 1159.51 92.447C1183.79 92.447 1217.99 105.721 1251.07 118.557C1279.88 129.737 1307.09 140.295 1324.79 140.713C1327.34 140.773 1329.87 140.8 1332.42 140.8C1332.43 140.8 1332.44 140.8 1332.45 140.8C1370.5 140.8 1408.96 134.242 1446.15 127.895C1483.28 121.563 1521.67 115.017 1559.58 115.017C1586.1 115.017 1610.04 118.17 1632.77 124.66C1653.78 130.66 1674.52 138.577 1695 147.644V144.77C1674.77 135.858 1654.27 128.061 1633.49 122.125C1610.52 115.567 1586.35 112.376 1559.58 112.376C1521.45 112.376 1482.94 118.945 1445.71 125.296C1408.62 131.62 1370.27 138.163 1332.45 138.163C1329.87 138.246 1327.38 138.137 1324.84 138.076C1307.61 137.669 1280.61 127.195 1252.02 116.098C1218.72 103.174 1184.28 89.814 1159.51 89.814C1150.94 89.814 1144.17 91.3847 1138.81 94.6165C1096.51 120.143 1106.87 158.665 1116.89 195.917C1126.21 230.563 1135.01 263.284 1103.55 285.526" fill="white" fill-opacity="0.64"/>
        <path d="M783.196 189.322C791.253 189.322 800.602 188.332 814.463 186.008C849.61 180.117 884.497 177.371 924.261 177.371C934.243 177.371 944.503 177.536 955.622 177.883C959.491 178 962.862 178.06 965.917 178.06C984.324 178.06 995.067 175.826 1002.99 170.353C1012.46 163.807 1018.09 152.33 1021.8 131.982C1030.3 85.2757 1049.04 43.3037 1080.7 0.00218705H1079.3C1047.84 43.2096 1029.18 85.14 1020.68 131.783C1017.03 151.806 1011.55 163.065 1002.35 169.423C994.634 174.757 984.076 176.93 965.917 176.93C962.873 176.93 959.513 176.873 955.66 176.753C944.53 176.41 934.258 176.241 924.261 176.241C884.436 176.241 849.485 178.99 814.275 184.893C800.481 187.205 791.185 188.192 783.196 188.192C760.483 188.192 744.2 180.587 738.531 143.456C733.111 107.959 737.921 70.3785 742.908 45.1004C746.124 28.7908 750.577 13.8221 756.178 0.00218705H754.995C749.432 13.7317 745.009 28.6101 741.8 44.8858C736.794 70.2468 731.969 107.966 737.412 143.625C742.369 176.086 755.631 189.322 783.196 189.322" fill="white" fill-opacity="0.64"/>
        <path d="M798.732 161.02H798.736C802.266 161.02 806.093 160.681 810.104 160.006C840.034 154.989 872.073 152.032 905.337 151.219C913.092 151.027 920.546 151.222 927.662 151.407C932.442 151.531 936.958 151.648 941.357 151.648C954.902 151.648 968.925 150.601 979.755 143.007C988.738 136.706 995.13 126.261 999.3 111.066C1010.62 69.8248 1026.88 33.3184 1048.7 0.0022255H1047.36C1025.68 33.2543 1009.49 69.6629 998.211 110.765C994.113 125.696 987.864 135.941 979.107 142.081C968.534 149.497 954.714 150.522 941.357 150.522C936.969 150.522 932.464 150.401 927.692 150.277C920.561 150.096 913.096 149.897 905.31 150.089C871.994 150.902 839.898 153.863 809.916 158.891C792.706 161.78 779.895 158.326 771.91 148.612C753.725 126.494 763.518 76.8685 768.776 50.2081C772.452 31.5782 777.937 14.9257 785.206 0.0022255H783.929C776.746 14.8805 771.322 31.4689 767.669 49.9896C762.373 76.8346 752.516 126.796 771.036 149.332C777.413 157.087 786.732 161.02 798.732 161.02" fill="white" fill-opacity="0.64"/>
    </g>
    <defs>
        <filter id="filter0_f_774_3459" x="508.299" y="-233.826" width="1199" height="1119" filterUnits="userSpaceOnUse" color-interpolation-filters="sRGB">
            <feFlood flood-opacity="0" result="BackgroundImageFix"/>
            <feBlend mode="normal" in="SourceGraphic" in2="BackgroundImageFix" result="shape"/>
            <feGaussianBlur stdDeviation="42" result="effect1_foregroundBlur_774_3459"/>
        </filter>
        <filter id="filter1_f_774_3459" x="-27.7451" y="423.468" width="1007.26" height="977.065" filterUnits="userSpaceOnUse" color-interpolation-filters="sRGB">
            <feFlood flood-opacity="0" result="BackgroundImageFix"/>
            <feBlend mode="normal" in="SourceGraphic" in2="BackgroundImageFix" result="shape"/>
            <feGaussianBlur stdDeviation="42" result="effect1_foregroundBlur_774_3459"/>
        </filter>
        <filter id="filter2_f_774_3459" x="-62.7012" y="-355.999" width="1091" height="1091" filterUnits="userSpaceOnUse" color-interpolation-filters="sRGB">
            <feFlood flood-opacity="0" result="BackgroundImageFix"/>
            <feBlend mode="normal" in="SourceGraphic" in2="BackgroundImageFix" result="shape"/>
            <feGaussianBlur stdDeviation="42" result="effect1_foregroundBlur_774_3459"/>
        </filter>
        <filter id="filter3_f_774_3459" x="618" y="324" width="1071" height="1071" filterUnits="userSpaceOnUse" color-interpolation-filters="sRGB">
            <feFlood flood-opacity="0" result="BackgroundImageFix"/>
            <feBlend mode="normal" in="SourceGraphic" in2="BackgroundImageFix" result="shape"/>
            <feGaussianBlur stdDeviation="42" result="effect1_foregroundBlur_774_3459"/>
        </filter>
        <linearGradient id="paint0_linear_774_3459" x1="883.3" y1="-251.798" x2="216.3" y2="378.202" gradientUnits="userSpaceOnUse">
            <stop offset="0.1797" stop-color="#FFD6B1" stop-opacity="0"/>
            <stop offset="1" stop-color="#FFD6B1" stop-opacity="0.87"/>
        </linearGradient>
        <clipPath id="clip0_774_3459">
            <rect width="1366" height="942" fill="white"/>
        </clipPath>
    </defs>
</svg>
